<mxfile host="app.diagrams.net" modified="2024-05-15T03:37:22.200Z" agent="Mozilla/5.0 (Macintosh; Intel Mac OS X 10_15_7) AppleWebKit/605.1.15 (KHTML, like Gecko) Version/17.4.1 Safari/605.1.15" etag="TjyaqxRwJpufMQyHKE76" version="24.4.0" type="device">
  <diagram name="Page-1" id="uEi_Xhov9nRL33SYJfMK">
    <mxGraphModel dx="1399" dy="697" grid="0" gridSize="10" guides="1" tooltips="1" connect="1" arrows="1" fold="1" page="0" pageScale="1" pageWidth="827" pageHeight="1169" math="0" shadow="0">
      <root>
        <mxCell id="0" />
        <mxCell id="1" parent="0" />
        <mxCell id="WVXgPva8khILI4rrqAxh-1" value="dim_customer" style="shape=table;startSize=30;container=1;collapsible=1;childLayout=tableLayout;fixedRows=1;rowLines=0;fontStyle=1;align=center;resizeLast=1;html=1;" vertex="1" parent="1">
          <mxGeometry x="-46" y="81" width="212.75" height="300" as="geometry" />
        </mxCell>
        <mxCell id="WVXgPva8khILI4rrqAxh-2" value="" style="shape=tableRow;horizontal=0;startSize=0;swimlaneHead=0;swimlaneBody=0;fillColor=none;collapsible=0;dropTarget=0;points=[[0,0.5],[1,0.5]];portConstraint=eastwest;top=0;left=0;right=0;bottom=1;" vertex="1" parent="WVXgPva8khILI4rrqAxh-1">
          <mxGeometry y="30" width="212.75" height="30" as="geometry" />
        </mxCell>
        <mxCell id="WVXgPva8khILI4rrqAxh-3" value="PK" style="shape=partialRectangle;connectable=0;fillColor=none;top=0;left=0;bottom=0;right=0;fontStyle=1;overflow=hidden;whiteSpace=wrap;html=1;" vertex="1" parent="WVXgPva8khILI4rrqAxh-2">
          <mxGeometry width="30" height="30" as="geometry">
            <mxRectangle width="30" height="30" as="alternateBounds" />
          </mxGeometry>
        </mxCell>
        <mxCell id="WVXgPva8khILI4rrqAxh-4" value="customer_id&lt;span style=&quot;white-space: pre;&quot;&gt;&#x9;&lt;span style=&quot;white-space: pre;&quot;&gt;&#x9;&lt;/span&gt;&lt;/span&gt;&lt;span style=&quot;white-space: pre;&quot;&gt;varchar(10)&lt;/span&gt;" style="shape=partialRectangle;connectable=0;fillColor=none;top=0;left=0;bottom=0;right=0;align=left;spacingLeft=6;fontStyle=5;overflow=hidden;whiteSpace=wrap;html=1;" vertex="1" parent="WVXgPva8khILI4rrqAxh-2">
          <mxGeometry x="30" width="182.75" height="30" as="geometry">
            <mxRectangle width="182.75" height="30" as="alternateBounds" />
          </mxGeometry>
        </mxCell>
        <mxCell id="WVXgPva8khILI4rrqAxh-5" value="" style="shape=tableRow;horizontal=0;startSize=0;swimlaneHead=0;swimlaneBody=0;fillColor=none;collapsible=0;dropTarget=0;points=[[0,0.5],[1,0.5]];portConstraint=eastwest;top=0;left=0;right=0;bottom=0;" vertex="1" parent="WVXgPva8khILI4rrqAxh-1">
          <mxGeometry y="60" width="212.75" height="30" as="geometry" />
        </mxCell>
        <mxCell id="WVXgPva8khILI4rrqAxh-6" value="" style="shape=partialRectangle;connectable=0;fillColor=none;top=0;left=0;bottom=0;right=0;editable=1;overflow=hidden;whiteSpace=wrap;html=1;" vertex="1" parent="WVXgPva8khILI4rrqAxh-5">
          <mxGeometry width="30" height="30" as="geometry">
            <mxRectangle width="30" height="30" as="alternateBounds" />
          </mxGeometry>
        </mxCell>
        <mxCell id="WVXgPva8khILI4rrqAxh-7" value="first_name&lt;span style=&quot;white-space: pre;&quot;&gt;&#x9;&lt;/span&gt;&lt;span style=&quot;white-space: pre;&quot;&gt;&#x9;varchar(20)&lt;/span&gt;" style="shape=partialRectangle;connectable=0;fillColor=none;top=0;left=0;bottom=0;right=0;align=left;spacingLeft=6;overflow=hidden;whiteSpace=wrap;html=1;" vertex="1" parent="WVXgPva8khILI4rrqAxh-5">
          <mxGeometry x="30" width="182.75" height="30" as="geometry">
            <mxRectangle width="182.75" height="30" as="alternateBounds" />
          </mxGeometry>
        </mxCell>
        <mxCell id="WVXgPva8khILI4rrqAxh-8" value="" style="shape=tableRow;horizontal=0;startSize=0;swimlaneHead=0;swimlaneBody=0;fillColor=none;collapsible=0;dropTarget=0;points=[[0,0.5],[1,0.5]];portConstraint=eastwest;top=0;left=0;right=0;bottom=0;" vertex="1" parent="WVXgPva8khILI4rrqAxh-1">
          <mxGeometry y="90" width="212.75" height="30" as="geometry" />
        </mxCell>
        <mxCell id="WVXgPva8khILI4rrqAxh-9" value="" style="shape=partialRectangle;connectable=0;fillColor=none;top=0;left=0;bottom=0;right=0;editable=1;overflow=hidden;whiteSpace=wrap;html=1;" vertex="1" parent="WVXgPva8khILI4rrqAxh-8">
          <mxGeometry width="30" height="30" as="geometry">
            <mxRectangle width="30" height="30" as="alternateBounds" />
          </mxGeometry>
        </mxCell>
        <mxCell id="WVXgPva8khILI4rrqAxh-10" value="middle_name&lt;span style=&quot;white-space: pre;&quot;&gt;&#x9;&lt;/span&gt;&lt;span style=&quot;white-space: pre;&quot;&gt;&#x9;varchar(20)&lt;/span&gt;" style="shape=partialRectangle;connectable=0;fillColor=none;top=0;left=0;bottom=0;right=0;align=left;spacingLeft=6;overflow=hidden;whiteSpace=wrap;html=1;" vertex="1" parent="WVXgPva8khILI4rrqAxh-8">
          <mxGeometry x="30" width="182.75" height="30" as="geometry">
            <mxRectangle width="182.75" height="30" as="alternateBounds" />
          </mxGeometry>
        </mxCell>
        <mxCell id="WVXgPva8khILI4rrqAxh-11" value="" style="shape=tableRow;horizontal=0;startSize=0;swimlaneHead=0;swimlaneBody=0;fillColor=none;collapsible=0;dropTarget=0;points=[[0,0.5],[1,0.5]];portConstraint=eastwest;top=0;left=0;right=0;bottom=0;" vertex="1" parent="WVXgPva8khILI4rrqAxh-1">
          <mxGeometry y="120" width="212.75" height="30" as="geometry" />
        </mxCell>
        <mxCell id="WVXgPva8khILI4rrqAxh-12" value="" style="shape=partialRectangle;connectable=0;fillColor=none;top=0;left=0;bottom=0;right=0;editable=1;overflow=hidden;whiteSpace=wrap;html=1;" vertex="1" parent="WVXgPva8khILI4rrqAxh-11">
          <mxGeometry width="30" height="30" as="geometry">
            <mxRectangle width="30" height="30" as="alternateBounds" />
          </mxGeometry>
        </mxCell>
        <mxCell id="WVXgPva8khILI4rrqAxh-13" value="address&lt;span style=&quot;white-space: pre;&quot;&gt;&#x9;&lt;/span&gt;&lt;span style=&quot;white-space: pre;&quot;&gt;&#x9;&lt;/span&gt;&lt;span style=&quot;white-space: pre;&quot;&gt;&#x9;varchar(20)&lt;/span&gt;" style="shape=partialRectangle;connectable=0;fillColor=none;top=0;left=0;bottom=0;right=0;align=left;spacingLeft=6;overflow=hidden;whiteSpace=wrap;html=1;" vertex="1" parent="WVXgPva8khILI4rrqAxh-11">
          <mxGeometry x="30" width="182.75" height="30" as="geometry">
            <mxRectangle width="182.75" height="30" as="alternateBounds" />
          </mxGeometry>
        </mxCell>
        <mxCell id="WVXgPva8khILI4rrqAxh-14" value="" style="shape=tableRow;horizontal=0;startSize=0;swimlaneHead=0;swimlaneBody=0;fillColor=none;collapsible=0;dropTarget=0;points=[[0,0.5],[1,0.5]];portConstraint=eastwest;top=0;left=0;right=0;bottom=0;" vertex="1" parent="WVXgPva8khILI4rrqAxh-1">
          <mxGeometry y="150" width="212.75" height="30" as="geometry" />
        </mxCell>
        <mxCell id="WVXgPva8khILI4rrqAxh-15" value="" style="shape=partialRectangle;connectable=0;fillColor=none;top=0;left=0;bottom=0;right=0;editable=1;overflow=hidden;whiteSpace=wrap;html=1;" vertex="1" parent="WVXgPva8khILI4rrqAxh-14">
          <mxGeometry width="30" height="30" as="geometry">
            <mxRectangle width="30" height="30" as="alternateBounds" />
          </mxGeometry>
        </mxCell>
        <mxCell id="WVXgPva8khILI4rrqAxh-16" value="&lt;span style=&quot;white-space: pre;&quot;&gt;bvn&lt;/span&gt;&amp;nbsp;&lt;span style=&quot;white-space: pre;&quot;&gt;&#x9;&lt;/span&gt;&lt;span style=&quot;white-space: pre;&quot;&gt;&#x9;&lt;/span&gt;&lt;span style=&quot;white-space: pre;&quot;&gt;&#x9;&lt;span style=&quot;white-space: pre;&quot;&gt;&#x9;&lt;/span&gt;varchar(11)&lt;/span&gt;" style="shape=partialRectangle;connectable=0;fillColor=none;top=0;left=0;bottom=0;right=0;align=left;spacingLeft=6;overflow=hidden;whiteSpace=wrap;html=1;" vertex="1" parent="WVXgPva8khILI4rrqAxh-14">
          <mxGeometry x="30" width="182.75" height="30" as="geometry">
            <mxRectangle width="182.75" height="30" as="alternateBounds" />
          </mxGeometry>
        </mxCell>
        <mxCell id="WVXgPva8khILI4rrqAxh-17" value="" style="shape=tableRow;horizontal=0;startSize=0;swimlaneHead=0;swimlaneBody=0;fillColor=none;collapsible=0;dropTarget=0;points=[[0,0.5],[1,0.5]];portConstraint=eastwest;top=0;left=0;right=0;bottom=0;" vertex="1" parent="WVXgPva8khILI4rrqAxh-1">
          <mxGeometry y="180" width="212.75" height="30" as="geometry" />
        </mxCell>
        <mxCell id="WVXgPva8khILI4rrqAxh-18" value="" style="shape=partialRectangle;connectable=0;fillColor=none;top=0;left=0;bottom=0;right=0;editable=1;overflow=hidden;whiteSpace=wrap;html=1;" vertex="1" parent="WVXgPva8khILI4rrqAxh-17">
          <mxGeometry width="30" height="30" as="geometry">
            <mxRectangle width="30" height="30" as="alternateBounds" />
          </mxGeometry>
        </mxCell>
        <mxCell id="WVXgPva8khILI4rrqAxh-19" value="phone&lt;span style=&quot;white-space: pre;&quot;&gt;&#x9;&lt;/span&gt;&lt;span style=&quot;white-space: pre;&quot;&gt;&#x9;&lt;/span&gt;&lt;span style=&quot;white-space: pre;&quot;&gt;&#x9;varchar(15)&lt;/span&gt;" style="shape=partialRectangle;connectable=0;fillColor=none;top=0;left=0;bottom=0;right=0;align=left;spacingLeft=6;overflow=hidden;whiteSpace=wrap;html=1;" vertex="1" parent="WVXgPva8khILI4rrqAxh-17">
          <mxGeometry x="30" width="182.75" height="30" as="geometry">
            <mxRectangle width="182.75" height="30" as="alternateBounds" />
          </mxGeometry>
        </mxCell>
        <mxCell id="WVXgPva8khILI4rrqAxh-20" value="" style="shape=tableRow;horizontal=0;startSize=0;swimlaneHead=0;swimlaneBody=0;fillColor=none;collapsible=0;dropTarget=0;points=[[0,0.5],[1,0.5]];portConstraint=eastwest;top=0;left=0;right=0;bottom=0;" vertex="1" parent="WVXgPva8khILI4rrqAxh-1">
          <mxGeometry y="210" width="212.75" height="30" as="geometry" />
        </mxCell>
        <mxCell id="WVXgPva8khILI4rrqAxh-21" value="" style="shape=partialRectangle;connectable=0;fillColor=none;top=0;left=0;bottom=0;right=0;editable=1;overflow=hidden;whiteSpace=wrap;html=1;" vertex="1" parent="WVXgPva8khILI4rrqAxh-20">
          <mxGeometry width="30" height="30" as="geometry">
            <mxRectangle width="30" height="30" as="alternateBounds" />
          </mxGeometry>
        </mxCell>
        <mxCell id="WVXgPva8khILI4rrqAxh-22" value="dob&lt;span style=&quot;white-space: pre;&quot;&gt;&#x9;&lt;/span&gt;&lt;span style=&quot;white-space: pre;&quot;&gt;&#x9;&lt;/span&gt;&lt;span style=&quot;white-space: pre;&quot;&gt;&#x9;&lt;/span&gt;&lt;span style=&quot;white-space: pre;&quot;&gt;&#x9;date&lt;/span&gt;" style="shape=partialRectangle;connectable=0;fillColor=none;top=0;left=0;bottom=0;right=0;align=left;spacingLeft=6;overflow=hidden;whiteSpace=wrap;html=1;" vertex="1" parent="WVXgPva8khILI4rrqAxh-20">
          <mxGeometry x="30" width="182.75" height="30" as="geometry">
            <mxRectangle width="182.75" height="30" as="alternateBounds" />
          </mxGeometry>
        </mxCell>
        <mxCell id="WVXgPva8khILI4rrqAxh-23" value="" style="shape=tableRow;horizontal=0;startSize=0;swimlaneHead=0;swimlaneBody=0;fillColor=none;collapsible=0;dropTarget=0;points=[[0,0.5],[1,0.5]];portConstraint=eastwest;top=0;left=0;right=0;bottom=0;" vertex="1" parent="WVXgPva8khILI4rrqAxh-1">
          <mxGeometry y="240" width="212.75" height="30" as="geometry" />
        </mxCell>
        <mxCell id="WVXgPva8khILI4rrqAxh-24" value="" style="shape=partialRectangle;connectable=0;fillColor=none;top=0;left=0;bottom=0;right=0;editable=1;overflow=hidden;whiteSpace=wrap;html=1;" vertex="1" parent="WVXgPva8khILI4rrqAxh-23">
          <mxGeometry width="30" height="30" as="geometry">
            <mxRectangle width="30" height="30" as="alternateBounds" />
          </mxGeometry>
        </mxCell>
        <mxCell id="WVXgPva8khILI4rrqAxh-25" value="email&lt;span style=&quot;white-space: pre;&quot;&gt;&#x9;&lt;/span&gt;&lt;span style=&quot;white-space: pre;&quot;&gt;&#x9;&lt;/span&gt;&lt;span style=&quot;white-space: pre;&quot;&gt;&#x9;&lt;/span&gt;&lt;span style=&quot;white-space: pre;&quot;&gt;varchar(50)&lt;/span&gt;" style="shape=partialRectangle;connectable=0;fillColor=none;top=0;left=0;bottom=0;right=0;align=left;spacingLeft=6;overflow=hidden;whiteSpace=wrap;html=1;" vertex="1" parent="WVXgPva8khILI4rrqAxh-23">
          <mxGeometry x="30" width="182.75" height="30" as="geometry">
            <mxRectangle width="182.75" height="30" as="alternateBounds" />
          </mxGeometry>
        </mxCell>
        <mxCell id="WVXgPva8khILI4rrqAxh-151" value="" style="shape=tableRow;horizontal=0;startSize=0;swimlaneHead=0;swimlaneBody=0;fillColor=none;collapsible=0;dropTarget=0;points=[[0,0.5],[1,0.5]];portConstraint=eastwest;top=0;left=0;right=0;bottom=0;" vertex="1" parent="WVXgPva8khILI4rrqAxh-1">
          <mxGeometry y="270" width="212.75" height="30" as="geometry" />
        </mxCell>
        <mxCell id="WVXgPva8khILI4rrqAxh-152" value="" style="shape=partialRectangle;connectable=0;fillColor=none;top=0;left=0;bottom=0;right=0;editable=1;overflow=hidden;whiteSpace=wrap;html=1;" vertex="1" parent="WVXgPva8khILI4rrqAxh-151">
          <mxGeometry width="30" height="30" as="geometry">
            <mxRectangle width="30" height="30" as="alternateBounds" />
          </mxGeometry>
        </mxCell>
        <mxCell id="WVXgPva8khILI4rrqAxh-153" value="is_varified&lt;span style=&quot;white-space: pre;&quot;&gt;&#x9;&lt;/span&gt;&lt;span style=&quot;white-space: pre;&quot;&gt;&#x9;boolean&lt;/span&gt;" style="shape=partialRectangle;connectable=0;fillColor=none;top=0;left=0;bottom=0;right=0;align=left;spacingLeft=6;overflow=hidden;whiteSpace=wrap;html=1;" vertex="1" parent="WVXgPva8khILI4rrqAxh-151">
          <mxGeometry x="30" width="182.75" height="30" as="geometry">
            <mxRectangle width="182.75" height="30" as="alternateBounds" />
          </mxGeometry>
        </mxCell>
        <mxCell id="WVXgPva8khILI4rrqAxh-26" value="fact_transaction" style="shape=table;startSize=30;container=1;collapsible=1;childLayout=tableLayout;fixedRows=1;rowLines=0;fontStyle=1;align=center;resizeLast=1;html=1;" vertex="1" parent="1">
          <mxGeometry x="284" y="217" width="212.75" height="270" as="geometry" />
        </mxCell>
        <mxCell id="WVXgPva8khILI4rrqAxh-27" value="" style="shape=tableRow;horizontal=0;startSize=0;swimlaneHead=0;swimlaneBody=0;fillColor=none;collapsible=0;dropTarget=0;points=[[0,0.5],[1,0.5]];portConstraint=eastwest;top=0;left=0;right=0;bottom=1;" vertex="1" parent="WVXgPva8khILI4rrqAxh-26">
          <mxGeometry y="30" width="212.75" height="30" as="geometry" />
        </mxCell>
        <mxCell id="WVXgPva8khILI4rrqAxh-28" value="PK" style="shape=partialRectangle;connectable=0;fillColor=none;top=0;left=0;bottom=0;right=0;fontStyle=1;overflow=hidden;whiteSpace=wrap;html=1;" vertex="1" parent="WVXgPva8khILI4rrqAxh-27">
          <mxGeometry width="30" height="30" as="geometry">
            <mxRectangle width="30" height="30" as="alternateBounds" />
          </mxGeometry>
        </mxCell>
        <mxCell id="WVXgPva8khILI4rrqAxh-29" value="trn_ref_no&lt;span style=&quot;white-space: pre;&quot;&gt;&#x9;&lt;span style=&quot;white-space: pre;&quot;&gt;&#x9;&lt;/span&gt;&lt;/span&gt;&lt;span style=&quot;white-space: pre;&quot;&gt;varchar(25)&lt;/span&gt;" style="shape=partialRectangle;connectable=0;fillColor=none;top=0;left=0;bottom=0;right=0;align=left;spacingLeft=6;fontStyle=5;overflow=hidden;whiteSpace=wrap;html=1;" vertex="1" parent="WVXgPva8khILI4rrqAxh-27">
          <mxGeometry x="30" width="182.75" height="30" as="geometry">
            <mxRectangle width="182.75" height="30" as="alternateBounds" />
          </mxGeometry>
        </mxCell>
        <mxCell id="WVXgPva8khILI4rrqAxh-30" value="" style="shape=tableRow;horizontal=0;startSize=0;swimlaneHead=0;swimlaneBody=0;fillColor=none;collapsible=0;dropTarget=0;points=[[0,0.5],[1,0.5]];portConstraint=eastwest;top=0;left=0;right=0;bottom=0;" vertex="1" parent="WVXgPva8khILI4rrqAxh-26">
          <mxGeometry y="60" width="212.75" height="30" as="geometry" />
        </mxCell>
        <mxCell id="WVXgPva8khILI4rrqAxh-31" value="FK" style="shape=partialRectangle;connectable=0;fillColor=none;top=0;left=0;bottom=0;right=0;editable=1;overflow=hidden;whiteSpace=wrap;html=1;" vertex="1" parent="WVXgPva8khILI4rrqAxh-30">
          <mxGeometry width="30" height="30" as="geometry">
            <mxRectangle width="30" height="30" as="alternateBounds" />
          </mxGeometry>
        </mxCell>
        <mxCell id="WVXgPva8khILI4rrqAxh-32" value="account_no&lt;span style=&quot;white-space: pre;&quot;&gt;&#x9;&lt;/span&gt;&lt;span style=&quot;white-space: pre;&quot;&gt;&#x9;varchar(10)&lt;/span&gt;" style="shape=partialRectangle;connectable=0;fillColor=none;top=0;left=0;bottom=0;right=0;align=left;spacingLeft=6;overflow=hidden;whiteSpace=wrap;html=1;" vertex="1" parent="WVXgPva8khILI4rrqAxh-30">
          <mxGeometry x="30" width="182.75" height="30" as="geometry">
            <mxRectangle width="182.75" height="30" as="alternateBounds" />
          </mxGeometry>
        </mxCell>
        <mxCell id="WVXgPva8khILI4rrqAxh-33" value="" style="shape=tableRow;horizontal=0;startSize=0;swimlaneHead=0;swimlaneBody=0;fillColor=none;collapsible=0;dropTarget=0;points=[[0,0.5],[1,0.5]];portConstraint=eastwest;top=0;left=0;right=0;bottom=0;" vertex="1" parent="WVXgPva8khILI4rrqAxh-26">
          <mxGeometry y="90" width="212.75" height="30" as="geometry" />
        </mxCell>
        <mxCell id="WVXgPva8khILI4rrqAxh-34" value="" style="shape=partialRectangle;connectable=0;fillColor=none;top=0;left=0;bottom=0;right=0;editable=1;overflow=hidden;whiteSpace=wrap;html=1;" vertex="1" parent="WVXgPva8khILI4rrqAxh-33">
          <mxGeometry width="30" height="30" as="geometry">
            <mxRectangle width="30" height="30" as="alternateBounds" />
          </mxGeometry>
        </mxCell>
        <mxCell id="WVXgPva8khILI4rrqAxh-35" value="related_account&lt;span style=&quot;white-space: pre;&quot;&gt;&#x9;&lt;/span&gt;&lt;span style=&quot;white-space: pre;&quot;&gt;varchar(20)&lt;/span&gt;" style="shape=partialRectangle;connectable=0;fillColor=none;top=0;left=0;bottom=0;right=0;align=left;spacingLeft=6;overflow=hidden;whiteSpace=wrap;html=1;" vertex="1" parent="WVXgPva8khILI4rrqAxh-33">
          <mxGeometry x="30" width="182.75" height="30" as="geometry">
            <mxRectangle width="182.75" height="30" as="alternateBounds" />
          </mxGeometry>
        </mxCell>
        <mxCell id="WVXgPva8khILI4rrqAxh-36" value="" style="shape=tableRow;horizontal=0;startSize=0;swimlaneHead=0;swimlaneBody=0;fillColor=none;collapsible=0;dropTarget=0;points=[[0,0.5],[1,0.5]];portConstraint=eastwest;top=0;left=0;right=0;bottom=0;" vertex="1" parent="WVXgPva8khILI4rrqAxh-26">
          <mxGeometry y="120" width="212.75" height="30" as="geometry" />
        </mxCell>
        <mxCell id="WVXgPva8khILI4rrqAxh-37" value="" style="shape=partialRectangle;connectable=0;fillColor=none;top=0;left=0;bottom=0;right=0;editable=1;overflow=hidden;whiteSpace=wrap;html=1;" vertex="1" parent="WVXgPva8khILI4rrqAxh-36">
          <mxGeometry width="30" height="30" as="geometry">
            <mxRectangle width="30" height="30" as="alternateBounds" />
          </mxGeometry>
        </mxCell>
        <mxCell id="WVXgPva8khILI4rrqAxh-38" value="trn_date&lt;span style=&quot;white-space: pre;&quot;&gt;&#x9;&lt;/span&gt;&lt;span style=&quot;white-space: pre;&quot;&gt;&#x9;&lt;/span&gt;&lt;span style=&quot;white-space: pre;&quot;&gt;&#x9;date&lt;/span&gt;" style="shape=partialRectangle;connectable=0;fillColor=none;top=0;left=0;bottom=0;right=0;align=left;spacingLeft=6;overflow=hidden;whiteSpace=wrap;html=1;" vertex="1" parent="WVXgPva8khILI4rrqAxh-36">
          <mxGeometry x="30" width="182.75" height="30" as="geometry">
            <mxRectangle width="182.75" height="30" as="alternateBounds" />
          </mxGeometry>
        </mxCell>
        <mxCell id="WVXgPva8khILI4rrqAxh-39" value="" style="shape=tableRow;horizontal=0;startSize=0;swimlaneHead=0;swimlaneBody=0;fillColor=none;collapsible=0;dropTarget=0;points=[[0,0.5],[1,0.5]];portConstraint=eastwest;top=0;left=0;right=0;bottom=0;" vertex="1" parent="WVXgPva8khILI4rrqAxh-26">
          <mxGeometry y="150" width="212.75" height="30" as="geometry" />
        </mxCell>
        <mxCell id="WVXgPva8khILI4rrqAxh-40" value="" style="shape=partialRectangle;connectable=0;fillColor=none;top=0;left=0;bottom=0;right=0;editable=1;overflow=hidden;whiteSpace=wrap;html=1;" vertex="1" parent="WVXgPva8khILI4rrqAxh-39">
          <mxGeometry width="30" height="30" as="geometry">
            <mxRectangle width="30" height="30" as="alternateBounds" />
          </mxGeometry>
        </mxCell>
        <mxCell id="WVXgPva8khILI4rrqAxh-41" value="&lt;span style=&quot;white-space: pre;&quot;&gt;dbcr_ind&lt;/span&gt;&amp;nbsp;&lt;span style=&quot;white-space: pre;&quot;&gt;&#x9;&lt;/span&gt;&lt;span style=&quot;white-space: pre;&quot;&gt;&#x9;&lt;/span&gt;&lt;span style=&quot;white-space: pre;&quot;&gt;&#x9;char(1)&lt;/span&gt;" style="shape=partialRectangle;connectable=0;fillColor=none;top=0;left=0;bottom=0;right=0;align=left;spacingLeft=6;overflow=hidden;whiteSpace=wrap;html=1;" vertex="1" parent="WVXgPva8khILI4rrqAxh-39">
          <mxGeometry x="30" width="182.75" height="30" as="geometry">
            <mxRectangle width="182.75" height="30" as="alternateBounds" />
          </mxGeometry>
        </mxCell>
        <mxCell id="WVXgPva8khILI4rrqAxh-42" value="" style="shape=tableRow;horizontal=0;startSize=0;swimlaneHead=0;swimlaneBody=0;fillColor=none;collapsible=0;dropTarget=0;points=[[0,0.5],[1,0.5]];portConstraint=eastwest;top=0;left=0;right=0;bottom=0;" vertex="1" parent="WVXgPva8khILI4rrqAxh-26">
          <mxGeometry y="180" width="212.75" height="30" as="geometry" />
        </mxCell>
        <mxCell id="WVXgPva8khILI4rrqAxh-43" value="" style="shape=partialRectangle;connectable=0;fillColor=none;top=0;left=0;bottom=0;right=0;editable=1;overflow=hidden;whiteSpace=wrap;html=1;" vertex="1" parent="WVXgPva8khILI4rrqAxh-42">
          <mxGeometry width="30" height="30" as="geometry">
            <mxRectangle width="30" height="30" as="alternateBounds" />
          </mxGeometry>
        </mxCell>
        <mxCell id="WVXgPva8khILI4rrqAxh-44" value="currency&lt;span style=&quot;white-space: pre;&quot;&gt;&#x9;&lt;/span&gt;&lt;span style=&quot;white-space: pre;&quot;&gt;&#x9;&lt;/span&gt;&lt;span style=&quot;white-space: pre;&quot;&gt;&#x9;char(3)&lt;/span&gt;" style="shape=partialRectangle;connectable=0;fillColor=none;top=0;left=0;bottom=0;right=0;align=left;spacingLeft=6;overflow=hidden;whiteSpace=wrap;html=1;" vertex="1" parent="WVXgPva8khILI4rrqAxh-42">
          <mxGeometry x="30" width="182.75" height="30" as="geometry">
            <mxRectangle width="182.75" height="30" as="alternateBounds" />
          </mxGeometry>
        </mxCell>
        <mxCell id="WVXgPva8khILI4rrqAxh-45" value="" style="shape=tableRow;horizontal=0;startSize=0;swimlaneHead=0;swimlaneBody=0;fillColor=none;collapsible=0;dropTarget=0;points=[[0,0.5],[1,0.5]];portConstraint=eastwest;top=0;left=0;right=0;bottom=0;" vertex="1" parent="WVXgPva8khILI4rrqAxh-26">
          <mxGeometry y="210" width="212.75" height="30" as="geometry" />
        </mxCell>
        <mxCell id="WVXgPva8khILI4rrqAxh-46" value="" style="shape=partialRectangle;connectable=0;fillColor=none;top=0;left=0;bottom=0;right=0;editable=1;overflow=hidden;whiteSpace=wrap;html=1;" vertex="1" parent="WVXgPva8khILI4rrqAxh-45">
          <mxGeometry width="30" height="30" as="geometry">
            <mxRectangle width="30" height="30" as="alternateBounds" />
          </mxGeometry>
        </mxCell>
        <mxCell id="WVXgPva8khILI4rrqAxh-47" value="trn_code&lt;span style=&quot;white-space: pre;&quot;&gt;&#x9;&lt;/span&gt;&lt;span style=&quot;white-space: pre;&quot;&gt;&#x9;&lt;/span&gt;&lt;span style=&quot;white-space: pre;&quot;&gt;&#x9;varchar(5)&lt;/span&gt;" style="shape=partialRectangle;connectable=0;fillColor=none;top=0;left=0;bottom=0;right=0;align=left;spacingLeft=6;overflow=hidden;whiteSpace=wrap;html=1;" vertex="1" parent="WVXgPva8khILI4rrqAxh-45">
          <mxGeometry x="30" width="182.75" height="30" as="geometry">
            <mxRectangle width="182.75" height="30" as="alternateBounds" />
          </mxGeometry>
        </mxCell>
        <mxCell id="WVXgPva8khILI4rrqAxh-48" value="" style="shape=tableRow;horizontal=0;startSize=0;swimlaneHead=0;swimlaneBody=0;fillColor=none;collapsible=0;dropTarget=0;points=[[0,0.5],[1,0.5]];portConstraint=eastwest;top=0;left=0;right=0;bottom=0;" vertex="1" parent="WVXgPva8khILI4rrqAxh-26">
          <mxGeometry y="240" width="212.75" height="30" as="geometry" />
        </mxCell>
        <mxCell id="WVXgPva8khILI4rrqAxh-49" value="FK" style="shape=partialRectangle;connectable=0;fillColor=none;top=0;left=0;bottom=0;right=0;editable=1;overflow=hidden;whiteSpace=wrap;html=1;" vertex="1" parent="WVXgPva8khILI4rrqAxh-48">
          <mxGeometry width="30" height="30" as="geometry">
            <mxRectangle width="30" height="30" as="alternateBounds" />
          </mxGeometry>
        </mxCell>
        <mxCell id="WVXgPva8khILI4rrqAxh-50" value="auth_staff_id&lt;span style=&quot;white-space: pre;&quot;&gt;&#x9;&lt;/span&gt;&lt;span style=&quot;white-space: pre;&quot;&gt;&#x9;&lt;/span&gt;&lt;span style=&quot;white-space: pre;&quot;&gt;varchar(10)&lt;/span&gt;" style="shape=partialRectangle;connectable=0;fillColor=none;top=0;left=0;bottom=0;right=0;align=left;spacingLeft=6;overflow=hidden;whiteSpace=wrap;html=1;" vertex="1" parent="WVXgPva8khILI4rrqAxh-48">
          <mxGeometry x="30" width="182.75" height="30" as="geometry">
            <mxRectangle width="182.75" height="30" as="alternateBounds" />
          </mxGeometry>
        </mxCell>
        <mxCell id="WVXgPva8khILI4rrqAxh-51" value="dim_branch" style="shape=table;startSize=30;container=1;collapsible=1;childLayout=tableLayout;fixedRows=1;rowLines=0;fontStyle=1;align=center;resizeLast=1;html=1;" vertex="1" parent="1">
          <mxGeometry x="591" y="81" width="212.75" height="210" as="geometry" />
        </mxCell>
        <mxCell id="WVXgPva8khILI4rrqAxh-52" value="" style="shape=tableRow;horizontal=0;startSize=0;swimlaneHead=0;swimlaneBody=0;fillColor=none;collapsible=0;dropTarget=0;points=[[0,0.5],[1,0.5]];portConstraint=eastwest;top=0;left=0;right=0;bottom=1;" vertex="1" parent="WVXgPva8khILI4rrqAxh-51">
          <mxGeometry y="30" width="212.75" height="30" as="geometry" />
        </mxCell>
        <mxCell id="WVXgPva8khILI4rrqAxh-53" value="PK" style="shape=partialRectangle;connectable=0;fillColor=none;top=0;left=0;bottom=0;right=0;fontStyle=1;overflow=hidden;whiteSpace=wrap;html=1;" vertex="1" parent="WVXgPva8khILI4rrqAxh-52">
          <mxGeometry width="30" height="30" as="geometry">
            <mxRectangle width="30" height="30" as="alternateBounds" />
          </mxGeometry>
        </mxCell>
        <mxCell id="WVXgPva8khILI4rrqAxh-54" value="branch_id&lt;span style=&quot;white-space: pre;&quot;&gt;&#x9;&lt;span style=&quot;white-space: pre;&quot;&gt;&#x9;&lt;/span&gt;&lt;/span&gt;&lt;span style=&quot;white-space: pre;&quot;&gt;varchar(4)&lt;/span&gt;" style="shape=partialRectangle;connectable=0;fillColor=none;top=0;left=0;bottom=0;right=0;align=left;spacingLeft=6;fontStyle=5;overflow=hidden;whiteSpace=wrap;html=1;" vertex="1" parent="WVXgPva8khILI4rrqAxh-52">
          <mxGeometry x="30" width="182.75" height="30" as="geometry">
            <mxRectangle width="182.75" height="30" as="alternateBounds" />
          </mxGeometry>
        </mxCell>
        <mxCell id="WVXgPva8khILI4rrqAxh-55" value="" style="shape=tableRow;horizontal=0;startSize=0;swimlaneHead=0;swimlaneBody=0;fillColor=none;collapsible=0;dropTarget=0;points=[[0,0.5],[1,0.5]];portConstraint=eastwest;top=0;left=0;right=0;bottom=0;" vertex="1" parent="WVXgPva8khILI4rrqAxh-51">
          <mxGeometry y="60" width="212.75" height="30" as="geometry" />
        </mxCell>
        <mxCell id="WVXgPva8khILI4rrqAxh-56" value="" style="shape=partialRectangle;connectable=0;fillColor=none;top=0;left=0;bottom=0;right=0;editable=1;overflow=hidden;whiteSpace=wrap;html=1;" vertex="1" parent="WVXgPva8khILI4rrqAxh-55">
          <mxGeometry width="30" height="30" as="geometry">
            <mxRectangle width="30" height="30" as="alternateBounds" />
          </mxGeometry>
        </mxCell>
        <mxCell id="WVXgPva8khILI4rrqAxh-57" value="name&lt;span style=&quot;white-space: pre;&quot;&gt;&#x9;&lt;/span&gt;&lt;span style=&quot;white-space: pre;&quot;&gt;&#x9;&lt;/span&gt;&lt;span style=&quot;white-space: pre;&quot;&gt;&#x9;varchar(20)&lt;/span&gt;" style="shape=partialRectangle;connectable=0;fillColor=none;top=0;left=0;bottom=0;right=0;align=left;spacingLeft=6;overflow=hidden;whiteSpace=wrap;html=1;" vertex="1" parent="WVXgPva8khILI4rrqAxh-55">
          <mxGeometry x="30" width="182.75" height="30" as="geometry">
            <mxRectangle width="182.75" height="30" as="alternateBounds" />
          </mxGeometry>
        </mxCell>
        <mxCell id="WVXgPva8khILI4rrqAxh-58" value="" style="shape=tableRow;horizontal=0;startSize=0;swimlaneHead=0;swimlaneBody=0;fillColor=none;collapsible=0;dropTarget=0;points=[[0,0.5],[1,0.5]];portConstraint=eastwest;top=0;left=0;right=0;bottom=0;" vertex="1" parent="WVXgPva8khILI4rrqAxh-51">
          <mxGeometry y="90" width="212.75" height="30" as="geometry" />
        </mxCell>
        <mxCell id="WVXgPva8khILI4rrqAxh-59" value="" style="shape=partialRectangle;connectable=0;fillColor=none;top=0;left=0;bottom=0;right=0;editable=1;overflow=hidden;whiteSpace=wrap;html=1;" vertex="1" parent="WVXgPva8khILI4rrqAxh-58">
          <mxGeometry width="30" height="30" as="geometry">
            <mxRectangle width="30" height="30" as="alternateBounds" />
          </mxGeometry>
        </mxCell>
        <mxCell id="WVXgPva8khILI4rrqAxh-60" value="address&lt;span style=&quot;white-space: pre;&quot;&gt;&#x9;&lt;/span&gt;&lt;span style=&quot;white-space: pre;&quot;&gt;&#x9;&lt;/span&gt;&lt;span style=&quot;white-space: pre;&quot;&gt;&#x9;&lt;/span&gt;&lt;span style=&quot;white-space: pre;&quot;&gt;text&lt;/span&gt;" style="shape=partialRectangle;connectable=0;fillColor=none;top=0;left=0;bottom=0;right=0;align=left;spacingLeft=6;overflow=hidden;whiteSpace=wrap;html=1;" vertex="1" parent="WVXgPva8khILI4rrqAxh-58">
          <mxGeometry x="30" width="182.75" height="30" as="geometry">
            <mxRectangle width="182.75" height="30" as="alternateBounds" />
          </mxGeometry>
        </mxCell>
        <mxCell id="WVXgPva8khILI4rrqAxh-61" value="" style="shape=tableRow;horizontal=0;startSize=0;swimlaneHead=0;swimlaneBody=0;fillColor=none;collapsible=0;dropTarget=0;points=[[0,0.5],[1,0.5]];portConstraint=eastwest;top=0;left=0;right=0;bottom=0;" vertex="1" parent="WVXgPva8khILI4rrqAxh-51">
          <mxGeometry y="120" width="212.75" height="30" as="geometry" />
        </mxCell>
        <mxCell id="WVXgPva8khILI4rrqAxh-62" value="" style="shape=partialRectangle;connectable=0;fillColor=none;top=0;left=0;bottom=0;right=0;editable=1;overflow=hidden;whiteSpace=wrap;html=1;" vertex="1" parent="WVXgPva8khILI4rrqAxh-61">
          <mxGeometry width="30" height="30" as="geometry">
            <mxRectangle width="30" height="30" as="alternateBounds" />
          </mxGeometry>
        </mxCell>
        <mxCell id="WVXgPva8khILI4rrqAxh-63" value="is_active&lt;span style=&quot;white-space: pre;&quot;&gt;&#x9;&lt;/span&gt;&lt;span style=&quot;white-space: pre;&quot;&gt;&#x9;&lt;/span&gt;&lt;span style=&quot;white-space: pre;&quot;&gt;&#x9;char(1)&lt;/span&gt;" style="shape=partialRectangle;connectable=0;fillColor=none;top=0;left=0;bottom=0;right=0;align=left;spacingLeft=6;overflow=hidden;whiteSpace=wrap;html=1;" vertex="1" parent="WVXgPva8khILI4rrqAxh-61">
          <mxGeometry x="30" width="182.75" height="30" as="geometry">
            <mxRectangle width="182.75" height="30" as="alternateBounds" />
          </mxGeometry>
        </mxCell>
        <mxCell id="WVXgPva8khILI4rrqAxh-64" value="" style="shape=tableRow;horizontal=0;startSize=0;swimlaneHead=0;swimlaneBody=0;fillColor=none;collapsible=0;dropTarget=0;points=[[0,0.5],[1,0.5]];portConstraint=eastwest;top=0;left=0;right=0;bottom=0;" vertex="1" parent="WVXgPva8khILI4rrqAxh-51">
          <mxGeometry y="150" width="212.75" height="30" as="geometry" />
        </mxCell>
        <mxCell id="WVXgPva8khILI4rrqAxh-65" value="" style="shape=partialRectangle;connectable=0;fillColor=none;top=0;left=0;bottom=0;right=0;editable=1;overflow=hidden;whiteSpace=wrap;html=1;" vertex="1" parent="WVXgPva8khILI4rrqAxh-64">
          <mxGeometry width="30" height="30" as="geometry">
            <mxRectangle width="30" height="30" as="alternateBounds" />
          </mxGeometry>
        </mxCell>
        <mxCell id="WVXgPva8khILI4rrqAxh-66" value="&lt;span style=&quot;white-space: pre;&quot;&gt;open_date&lt;/span&gt;&amp;nbsp;&lt;span style=&quot;white-space: pre;&quot;&gt;&#x9;&lt;/span&gt;&lt;span style=&quot;white-space: pre;&quot;&gt;&#x9;date&lt;/span&gt;" style="shape=partialRectangle;connectable=0;fillColor=none;top=0;left=0;bottom=0;right=0;align=left;spacingLeft=6;overflow=hidden;whiteSpace=wrap;html=1;" vertex="1" parent="WVXgPva8khILI4rrqAxh-64">
          <mxGeometry x="30" width="182.75" height="30" as="geometry">
            <mxRectangle width="182.75" height="30" as="alternateBounds" />
          </mxGeometry>
        </mxCell>
        <mxCell id="WVXgPva8khILI4rrqAxh-67" value="" style="shape=tableRow;horizontal=0;startSize=0;swimlaneHead=0;swimlaneBody=0;fillColor=none;collapsible=0;dropTarget=0;points=[[0,0.5],[1,0.5]];portConstraint=eastwest;top=0;left=0;right=0;bottom=0;" vertex="1" parent="WVXgPva8khILI4rrqAxh-51">
          <mxGeometry y="180" width="212.75" height="30" as="geometry" />
        </mxCell>
        <mxCell id="WVXgPva8khILI4rrqAxh-68" value="FK" style="shape=partialRectangle;connectable=0;fillColor=none;top=0;left=0;bottom=0;right=0;editable=1;overflow=hidden;whiteSpace=wrap;html=1;" vertex="1" parent="WVXgPva8khILI4rrqAxh-67">
          <mxGeometry width="30" height="30" as="geometry">
            <mxRectangle width="30" height="30" as="alternateBounds" />
          </mxGeometry>
        </mxCell>
        <mxCell id="WVXgPva8khILI4rrqAxh-69" value="manager_id&lt;span style=&quot;white-space: pre;&quot;&gt;&#x9;&lt;/span&gt;&lt;span style=&quot;white-space: pre;&quot;&gt;&#x9;varchar&lt;/span&gt;&lt;span style=&quot;white-space: pre;&quot;&gt;(10)&lt;/span&gt;" style="shape=partialRectangle;connectable=0;fillColor=none;top=0;left=0;bottom=0;right=0;align=left;spacingLeft=6;overflow=hidden;whiteSpace=wrap;html=1;" vertex="1" parent="WVXgPva8khILI4rrqAxh-67">
          <mxGeometry x="30" width="182.75" height="30" as="geometry">
            <mxRectangle width="182.75" height="30" as="alternateBounds" />
          </mxGeometry>
        </mxCell>
        <mxCell id="WVXgPva8khILI4rrqAxh-76" value="fact_loan" style="shape=table;startSize=30;container=1;collapsible=1;childLayout=tableLayout;fixedRows=1;rowLines=0;fontStyle=1;align=center;resizeLast=1;html=1;" vertex="1" parent="1">
          <mxGeometry x="286" y="534" width="212.75" height="300" as="geometry" />
        </mxCell>
        <mxCell id="WVXgPva8khILI4rrqAxh-77" value="" style="shape=tableRow;horizontal=0;startSize=0;swimlaneHead=0;swimlaneBody=0;fillColor=none;collapsible=0;dropTarget=0;points=[[0,0.5],[1,0.5]];portConstraint=eastwest;top=0;left=0;right=0;bottom=1;" vertex="1" parent="WVXgPva8khILI4rrqAxh-76">
          <mxGeometry y="30" width="212.75" height="30" as="geometry" />
        </mxCell>
        <mxCell id="WVXgPva8khILI4rrqAxh-78" value="PK" style="shape=partialRectangle;connectable=0;fillColor=none;top=0;left=0;bottom=0;right=0;fontStyle=1;overflow=hidden;whiteSpace=wrap;html=1;" vertex="1" parent="WVXgPva8khILI4rrqAxh-77">
          <mxGeometry width="30" height="30" as="geometry">
            <mxRectangle width="30" height="30" as="alternateBounds" />
          </mxGeometry>
        </mxCell>
        <mxCell id="WVXgPva8khILI4rrqAxh-79" value="loan_ref_no&lt;span style=&quot;white-space: pre;&quot;&gt;&#x9;&lt;span style=&quot;white-space: pre;&quot;&gt;&#x9;&lt;/span&gt;&lt;/span&gt;&lt;span style=&quot;white-space: pre;&quot;&gt;varchar(25)&lt;/span&gt;" style="shape=partialRectangle;connectable=0;fillColor=none;top=0;left=0;bottom=0;right=0;align=left;spacingLeft=6;fontStyle=5;overflow=hidden;whiteSpace=wrap;html=1;" vertex="1" parent="WVXgPva8khILI4rrqAxh-77">
          <mxGeometry x="30" width="182.75" height="30" as="geometry">
            <mxRectangle width="182.75" height="30" as="alternateBounds" />
          </mxGeometry>
        </mxCell>
        <mxCell id="WVXgPva8khILI4rrqAxh-80" value="" style="shape=tableRow;horizontal=0;startSize=0;swimlaneHead=0;swimlaneBody=0;fillColor=none;collapsible=0;dropTarget=0;points=[[0,0.5],[1,0.5]];portConstraint=eastwest;top=0;left=0;right=0;bottom=0;" vertex="1" parent="WVXgPva8khILI4rrqAxh-76">
          <mxGeometry y="60" width="212.75" height="30" as="geometry" />
        </mxCell>
        <mxCell id="WVXgPva8khILI4rrqAxh-81" value="" style="shape=partialRectangle;connectable=0;fillColor=none;top=0;left=0;bottom=0;right=0;editable=1;overflow=hidden;whiteSpace=wrap;html=1;" vertex="1" parent="WVXgPva8khILI4rrqAxh-80">
          <mxGeometry width="30" height="30" as="geometry">
            <mxRectangle width="30" height="30" as="alternateBounds" />
          </mxGeometry>
        </mxCell>
        <mxCell id="WVXgPva8khILI4rrqAxh-82" value="settlement_account&lt;span style=&quot;white-space: pre;&quot;&gt;&#x9;&lt;/span&gt;&lt;span style=&quot;white-space: pre;&quot;&gt;varchar(10)&lt;/span&gt;" style="shape=partialRectangle;connectable=0;fillColor=none;top=0;left=0;bottom=0;right=0;align=left;spacingLeft=6;overflow=hidden;whiteSpace=wrap;html=1;" vertex="1" parent="WVXgPva8khILI4rrqAxh-80">
          <mxGeometry x="30" width="182.75" height="30" as="geometry">
            <mxRectangle width="182.75" height="30" as="alternateBounds" />
          </mxGeometry>
        </mxCell>
        <mxCell id="WVXgPva8khILI4rrqAxh-160" value="" style="shape=tableRow;horizontal=0;startSize=0;swimlaneHead=0;swimlaneBody=0;fillColor=none;collapsible=0;dropTarget=0;points=[[0,0.5],[1,0.5]];portConstraint=eastwest;top=0;left=0;right=0;bottom=0;" vertex="1" parent="WVXgPva8khILI4rrqAxh-76">
          <mxGeometry y="90" width="212.75" height="30" as="geometry" />
        </mxCell>
        <mxCell id="WVXgPva8khILI4rrqAxh-161" value="" style="shape=partialRectangle;connectable=0;fillColor=none;top=0;left=0;bottom=0;right=0;editable=1;overflow=hidden;whiteSpace=wrap;html=1;" vertex="1" parent="WVXgPva8khILI4rrqAxh-160">
          <mxGeometry width="30" height="30" as="geometry">
            <mxRectangle width="30" height="30" as="alternateBounds" />
          </mxGeometry>
        </mxCell>
        <mxCell id="WVXgPva8khILI4rrqAxh-162" value="loan_type&lt;span style=&quot;white-space: pre;&quot;&gt;&#x9;&lt;/span&gt;&lt;span style=&quot;white-space: pre;&quot;&gt;&#x9;varchar(10)&lt;/span&gt;" style="shape=partialRectangle;connectable=0;fillColor=none;top=0;left=0;bottom=0;right=0;align=left;spacingLeft=6;overflow=hidden;whiteSpace=wrap;html=1;" vertex="1" parent="WVXgPva8khILI4rrqAxh-160">
          <mxGeometry x="30" width="182.75" height="30" as="geometry">
            <mxRectangle width="182.75" height="30" as="alternateBounds" />
          </mxGeometry>
        </mxCell>
        <mxCell id="WVXgPva8khILI4rrqAxh-83" value="" style="shape=tableRow;horizontal=0;startSize=0;swimlaneHead=0;swimlaneBody=0;fillColor=none;collapsible=0;dropTarget=0;points=[[0,0.5],[1,0.5]];portConstraint=eastwest;top=0;left=0;right=0;bottom=0;" vertex="1" parent="WVXgPva8khILI4rrqAxh-76">
          <mxGeometry y="120" width="212.75" height="30" as="geometry" />
        </mxCell>
        <mxCell id="WVXgPva8khILI4rrqAxh-84" value="" style="shape=partialRectangle;connectable=0;fillColor=none;top=0;left=0;bottom=0;right=0;editable=1;overflow=hidden;whiteSpace=wrap;html=1;" vertex="1" parent="WVXgPva8khILI4rrqAxh-83">
          <mxGeometry width="30" height="30" as="geometry">
            <mxRectangle width="30" height="30" as="alternateBounds" />
          </mxGeometry>
        </mxCell>
        <mxCell id="WVXgPva8khILI4rrqAxh-85" value="amount&lt;span style=&quot;white-space: pre;&quot;&gt;&#x9;&lt;span style=&quot;white-space: pre;&quot;&gt;&#x9;&lt;/span&gt;&lt;span style=&quot;white-space: pre;&quot;&gt;&#x9;&lt;/span&gt;&lt;/span&gt;&lt;span style=&quot;white-space: pre;&quot;&gt;float&lt;/span&gt;" style="shape=partialRectangle;connectable=0;fillColor=none;top=0;left=0;bottom=0;right=0;align=left;spacingLeft=6;overflow=hidden;whiteSpace=wrap;html=1;" vertex="1" parent="WVXgPva8khILI4rrqAxh-83">
          <mxGeometry x="30" width="182.75" height="30" as="geometry">
            <mxRectangle width="182.75" height="30" as="alternateBounds" />
          </mxGeometry>
        </mxCell>
        <mxCell id="WVXgPva8khILI4rrqAxh-86" value="" style="shape=tableRow;horizontal=0;startSize=0;swimlaneHead=0;swimlaneBody=0;fillColor=none;collapsible=0;dropTarget=0;points=[[0,0.5],[1,0.5]];portConstraint=eastwest;top=0;left=0;right=0;bottom=0;" vertex="1" parent="WVXgPva8khILI4rrqAxh-76">
          <mxGeometry y="150" width="212.75" height="30" as="geometry" />
        </mxCell>
        <mxCell id="WVXgPva8khILI4rrqAxh-87" value="" style="shape=partialRectangle;connectable=0;fillColor=none;top=0;left=0;bottom=0;right=0;editable=1;overflow=hidden;whiteSpace=wrap;html=1;" vertex="1" parent="WVXgPva8khILI4rrqAxh-86">
          <mxGeometry width="30" height="30" as="geometry">
            <mxRectangle width="30" height="30" as="alternateBounds" />
          </mxGeometry>
        </mxCell>
        <mxCell id="WVXgPva8khILI4rrqAxh-88" value="currency&lt;span style=&quot;white-space: pre;&quot;&gt;&#x9;&lt;/span&gt;&lt;span style=&quot;white-space: pre;&quot;&gt;&#x9;&lt;/span&gt;&lt;span style=&quot;white-space: pre;&quot;&gt;&#x9;char(3)&lt;/span&gt;" style="shape=partialRectangle;connectable=0;fillColor=none;top=0;left=0;bottom=0;right=0;align=left;spacingLeft=6;overflow=hidden;whiteSpace=wrap;html=1;" vertex="1" parent="WVXgPva8khILI4rrqAxh-86">
          <mxGeometry x="30" width="182.75" height="30" as="geometry">
            <mxRectangle width="182.75" height="30" as="alternateBounds" />
          </mxGeometry>
        </mxCell>
        <mxCell id="WVXgPva8khILI4rrqAxh-89" value="" style="shape=tableRow;horizontal=0;startSize=0;swimlaneHead=0;swimlaneBody=0;fillColor=none;collapsible=0;dropTarget=0;points=[[0,0.5],[1,0.5]];portConstraint=eastwest;top=0;left=0;right=0;bottom=0;" vertex="1" parent="WVXgPva8khILI4rrqAxh-76">
          <mxGeometry y="180" width="212.75" height="30" as="geometry" />
        </mxCell>
        <mxCell id="WVXgPva8khILI4rrqAxh-90" value="" style="shape=partialRectangle;connectable=0;fillColor=none;top=0;left=0;bottom=0;right=0;editable=1;overflow=hidden;whiteSpace=wrap;html=1;" vertex="1" parent="WVXgPva8khILI4rrqAxh-89">
          <mxGeometry width="30" height="30" as="geometry">
            <mxRectangle width="30" height="30" as="alternateBounds" />
          </mxGeometry>
        </mxCell>
        <mxCell id="WVXgPva8khILI4rrqAxh-91" value="&lt;span style=&quot;white-space: pre;&quot;&gt;booking_date&lt;/span&gt;&amp;nbsp;&lt;span style=&quot;white-space: pre;&quot;&gt;&#x9;&lt;/span&gt;&lt;span style=&quot;white-space: pre;&quot;&gt;&#x9;date&lt;/span&gt;" style="shape=partialRectangle;connectable=0;fillColor=none;top=0;left=0;bottom=0;right=0;align=left;spacingLeft=6;overflow=hidden;whiteSpace=wrap;html=1;" vertex="1" parent="WVXgPva8khILI4rrqAxh-89">
          <mxGeometry x="30" width="182.75" height="30" as="geometry">
            <mxRectangle width="182.75" height="30" as="alternateBounds" />
          </mxGeometry>
        </mxCell>
        <mxCell id="WVXgPva8khILI4rrqAxh-92" value="" style="shape=tableRow;horizontal=0;startSize=0;swimlaneHead=0;swimlaneBody=0;fillColor=none;collapsible=0;dropTarget=0;points=[[0,0.5],[1,0.5]];portConstraint=eastwest;top=0;left=0;right=0;bottom=0;" vertex="1" parent="WVXgPva8khILI4rrqAxh-76">
          <mxGeometry y="210" width="212.75" height="30" as="geometry" />
        </mxCell>
        <mxCell id="WVXgPva8khILI4rrqAxh-93" value="" style="shape=partialRectangle;connectable=0;fillColor=none;top=0;left=0;bottom=0;right=0;editable=1;overflow=hidden;whiteSpace=wrap;html=1;" vertex="1" parent="WVXgPva8khILI4rrqAxh-92">
          <mxGeometry width="30" height="30" as="geometry">
            <mxRectangle width="30" height="30" as="alternateBounds" />
          </mxGeometry>
        </mxCell>
        <mxCell id="WVXgPva8khILI4rrqAxh-94" value="maturity_date&lt;span style=&quot;white-space: pre;&quot;&gt;&#x9;&lt;/span&gt;&lt;span style=&quot;white-space: pre;&quot;&gt;&#x9;date&lt;/span&gt;" style="shape=partialRectangle;connectable=0;fillColor=none;top=0;left=0;bottom=0;right=0;align=left;spacingLeft=6;overflow=hidden;whiteSpace=wrap;html=1;" vertex="1" parent="WVXgPva8khILI4rrqAxh-92">
          <mxGeometry x="30" width="182.75" height="30" as="geometry">
            <mxRectangle width="182.75" height="30" as="alternateBounds" />
          </mxGeometry>
        </mxCell>
        <mxCell id="WVXgPva8khILI4rrqAxh-95" value="" style="shape=tableRow;horizontal=0;startSize=0;swimlaneHead=0;swimlaneBody=0;fillColor=none;collapsible=0;dropTarget=0;points=[[0,0.5],[1,0.5]];portConstraint=eastwest;top=0;left=0;right=0;bottom=0;" vertex="1" parent="WVXgPva8khILI4rrqAxh-76">
          <mxGeometry y="240" width="212.75" height="30" as="geometry" />
        </mxCell>
        <mxCell id="WVXgPva8khILI4rrqAxh-96" value="" style="shape=partialRectangle;connectable=0;fillColor=none;top=0;left=0;bottom=0;right=0;editable=1;overflow=hidden;whiteSpace=wrap;html=1;" vertex="1" parent="WVXgPva8khILI4rrqAxh-95">
          <mxGeometry width="30" height="30" as="geometry">
            <mxRectangle width="30" height="30" as="alternateBounds" />
          </mxGeometry>
        </mxCell>
        <mxCell id="WVXgPva8khILI4rrqAxh-97" value="outstanding_balance&lt;span style=&quot;white-space: pre;&quot;&gt;&amp;nbsp;  float&lt;/span&gt;" style="shape=partialRectangle;connectable=0;fillColor=none;top=0;left=0;bottom=0;right=0;align=left;spacingLeft=6;overflow=hidden;whiteSpace=wrap;html=1;" vertex="1" parent="WVXgPva8khILI4rrqAxh-95">
          <mxGeometry x="30" width="182.75" height="30" as="geometry">
            <mxRectangle width="182.75" height="30" as="alternateBounds" />
          </mxGeometry>
        </mxCell>
        <mxCell id="WVXgPva8khILI4rrqAxh-98" value="" style="shape=tableRow;horizontal=0;startSize=0;swimlaneHead=0;swimlaneBody=0;fillColor=none;collapsible=0;dropTarget=0;points=[[0,0.5],[1,0.5]];portConstraint=eastwest;top=0;left=0;right=0;bottom=0;" vertex="1" parent="WVXgPva8khILI4rrqAxh-76">
          <mxGeometry y="270" width="212.75" height="30" as="geometry" />
        </mxCell>
        <mxCell id="WVXgPva8khILI4rrqAxh-99" value="FK" style="shape=partialRectangle;connectable=0;fillColor=none;top=0;left=0;bottom=0;right=0;editable=1;overflow=hidden;whiteSpace=wrap;html=1;" vertex="1" parent="WVXgPva8khILI4rrqAxh-98">
          <mxGeometry width="30" height="30" as="geometry">
            <mxRectangle width="30" height="30" as="alternateBounds" />
          </mxGeometry>
        </mxCell>
        <mxCell id="WVXgPva8khILI4rrqAxh-100" value="auth_staff_id&lt;span style=&quot;white-space: pre;&quot;&gt;&#x9;&lt;/span&gt;&lt;span style=&quot;white-space: pre;&quot;&gt;&#x9;&lt;/span&gt;&lt;span style=&quot;white-space: pre;&quot;&gt;varchar(10)&lt;/span&gt;" style="shape=partialRectangle;connectable=0;fillColor=none;top=0;left=0;bottom=0;right=0;align=left;spacingLeft=6;overflow=hidden;whiteSpace=wrap;html=1;" vertex="1" parent="WVXgPva8khILI4rrqAxh-98">
          <mxGeometry x="30" width="182.75" height="30" as="geometry">
            <mxRectangle width="182.75" height="30" as="alternateBounds" />
          </mxGeometry>
        </mxCell>
        <mxCell id="WVXgPva8khILI4rrqAxh-101" value="dim_account" style="shape=table;startSize=30;container=1;collapsible=1;childLayout=tableLayout;fixedRows=1;rowLines=0;fontStyle=1;align=center;resizeLast=1;html=1;" vertex="1" parent="1">
          <mxGeometry x="-42" y="516" width="212.75" height="330" as="geometry" />
        </mxCell>
        <mxCell id="WVXgPva8khILI4rrqAxh-102" value="" style="shape=tableRow;horizontal=0;startSize=0;swimlaneHead=0;swimlaneBody=0;fillColor=none;collapsible=0;dropTarget=0;points=[[0,0.5],[1,0.5]];portConstraint=eastwest;top=0;left=0;right=0;bottom=1;" vertex="1" parent="WVXgPva8khILI4rrqAxh-101">
          <mxGeometry y="30" width="212.75" height="30" as="geometry" />
        </mxCell>
        <mxCell id="WVXgPva8khILI4rrqAxh-103" value="PK" style="shape=partialRectangle;connectable=0;fillColor=none;top=0;left=0;bottom=0;right=0;fontStyle=1;overflow=hidden;whiteSpace=wrap;html=1;" vertex="1" parent="WVXgPva8khILI4rrqAxh-102">
          <mxGeometry width="30" height="30" as="geometry">
            <mxRectangle width="30" height="30" as="alternateBounds" />
          </mxGeometry>
        </mxCell>
        <mxCell id="WVXgPva8khILI4rrqAxh-104" value="account_no&lt;span style=&quot;white-space: pre;&quot;&gt;&#x9;&lt;span style=&quot;white-space: pre;&quot;&gt;&#x9;&lt;/span&gt;&lt;/span&gt;&lt;span style=&quot;white-space: pre;&quot;&gt;varchar(10)&lt;/span&gt;" style="shape=partialRectangle;connectable=0;fillColor=none;top=0;left=0;bottom=0;right=0;align=left;spacingLeft=6;fontStyle=5;overflow=hidden;whiteSpace=wrap;html=1;" vertex="1" parent="WVXgPva8khILI4rrqAxh-102">
          <mxGeometry x="30" width="182.75" height="30" as="geometry">
            <mxRectangle width="182.75" height="30" as="alternateBounds" />
          </mxGeometry>
        </mxCell>
        <mxCell id="WVXgPva8khILI4rrqAxh-105" value="" style="shape=tableRow;horizontal=0;startSize=0;swimlaneHead=0;swimlaneBody=0;fillColor=none;collapsible=0;dropTarget=0;points=[[0,0.5],[1,0.5]];portConstraint=eastwest;top=0;left=0;right=0;bottom=0;" vertex="1" parent="WVXgPva8khILI4rrqAxh-101">
          <mxGeometry y="60" width="212.75" height="30" as="geometry" />
        </mxCell>
        <mxCell id="WVXgPva8khILI4rrqAxh-106" value="FK" style="shape=partialRectangle;connectable=0;fillColor=none;top=0;left=0;bottom=0;right=0;editable=1;overflow=hidden;whiteSpace=wrap;html=1;" vertex="1" parent="WVXgPva8khILI4rrqAxh-105">
          <mxGeometry width="30" height="30" as="geometry">
            <mxRectangle width="30" height="30" as="alternateBounds" />
          </mxGeometry>
        </mxCell>
        <mxCell id="WVXgPva8khILI4rrqAxh-107" value="customer_id&lt;span style=&quot;white-space: pre;&quot;&gt;&#x9;&lt;/span&gt;&lt;span style=&quot;white-space: pre;&quot;&gt;&#x9;varchar(10)&lt;/span&gt;" style="shape=partialRectangle;connectable=0;fillColor=none;top=0;left=0;bottom=0;right=0;align=left;spacingLeft=6;overflow=hidden;whiteSpace=wrap;html=1;" vertex="1" parent="WVXgPva8khILI4rrqAxh-105">
          <mxGeometry x="30" width="182.75" height="30" as="geometry">
            <mxRectangle width="182.75" height="30" as="alternateBounds" />
          </mxGeometry>
        </mxCell>
        <mxCell id="WVXgPva8khILI4rrqAxh-108" value="" style="shape=tableRow;horizontal=0;startSize=0;swimlaneHead=0;swimlaneBody=0;fillColor=none;collapsible=0;dropTarget=0;points=[[0,0.5],[1,0.5]];portConstraint=eastwest;top=0;left=0;right=0;bottom=0;" vertex="1" parent="WVXgPva8khILI4rrqAxh-101">
          <mxGeometry y="90" width="212.75" height="30" as="geometry" />
        </mxCell>
        <mxCell id="WVXgPva8khILI4rrqAxh-109" value="FK" style="shape=partialRectangle;connectable=0;fillColor=none;top=0;left=0;bottom=0;right=0;editable=1;overflow=hidden;whiteSpace=wrap;html=1;" vertex="1" parent="WVXgPva8khILI4rrqAxh-108">
          <mxGeometry width="30" height="30" as="geometry">
            <mxRectangle width="30" height="30" as="alternateBounds" />
          </mxGeometry>
        </mxCell>
        <mxCell id="WVXgPva8khILI4rrqAxh-110" value="branch_id&lt;span style=&quot;white-space: pre;&quot;&gt;&#x9;&lt;/span&gt;&lt;span style=&quot;white-space: pre;&quot;&gt;&#x9;char(4)&lt;/span&gt;" style="shape=partialRectangle;connectable=0;fillColor=none;top=0;left=0;bottom=0;right=0;align=left;spacingLeft=6;overflow=hidden;whiteSpace=wrap;html=1;" vertex="1" parent="WVXgPva8khILI4rrqAxh-108">
          <mxGeometry x="30" width="182.75" height="30" as="geometry">
            <mxRectangle width="182.75" height="30" as="alternateBounds" />
          </mxGeometry>
        </mxCell>
        <mxCell id="WVXgPva8khILI4rrqAxh-111" value="" style="shape=tableRow;horizontal=0;startSize=0;swimlaneHead=0;swimlaneBody=0;fillColor=none;collapsible=0;dropTarget=0;points=[[0,0.5],[1,0.5]];portConstraint=eastwest;top=0;left=0;right=0;bottom=0;" vertex="1" parent="WVXgPva8khILI4rrqAxh-101">
          <mxGeometry y="120" width="212.75" height="30" as="geometry" />
        </mxCell>
        <mxCell id="WVXgPva8khILI4rrqAxh-112" value="" style="shape=partialRectangle;connectable=0;fillColor=none;top=0;left=0;bottom=0;right=0;editable=1;overflow=hidden;whiteSpace=wrap;html=1;" vertex="1" parent="WVXgPva8khILI4rrqAxh-111">
          <mxGeometry width="30" height="30" as="geometry">
            <mxRectangle width="30" height="30" as="alternateBounds" />
          </mxGeometry>
        </mxCell>
        <mxCell id="WVXgPva8khILI4rrqAxh-113" value="account_type&lt;span style=&quot;white-space: pre;&quot;&gt;&#x9;&lt;/span&gt;&lt;span style=&quot;white-space: pre;&quot;&gt;&#x9;varchar(10)&lt;/span&gt;" style="shape=partialRectangle;connectable=0;fillColor=none;top=0;left=0;bottom=0;right=0;align=left;spacingLeft=6;overflow=hidden;whiteSpace=wrap;html=1;" vertex="1" parent="WVXgPva8khILI4rrqAxh-111">
          <mxGeometry x="30" width="182.75" height="30" as="geometry">
            <mxRectangle width="182.75" height="30" as="alternateBounds" />
          </mxGeometry>
        </mxCell>
        <mxCell id="WVXgPva8khILI4rrqAxh-114" value="" style="shape=tableRow;horizontal=0;startSize=0;swimlaneHead=0;swimlaneBody=0;fillColor=none;collapsible=0;dropTarget=0;points=[[0,0.5],[1,0.5]];portConstraint=eastwest;top=0;left=0;right=0;bottom=0;" vertex="1" parent="WVXgPva8khILI4rrqAxh-101">
          <mxGeometry y="150" width="212.75" height="30" as="geometry" />
        </mxCell>
        <mxCell id="WVXgPva8khILI4rrqAxh-115" value="" style="shape=partialRectangle;connectable=0;fillColor=none;top=0;left=0;bottom=0;right=0;editable=1;overflow=hidden;whiteSpace=wrap;html=1;" vertex="1" parent="WVXgPva8khILI4rrqAxh-114">
          <mxGeometry width="30" height="30" as="geometry">
            <mxRectangle width="30" height="30" as="alternateBounds" />
          </mxGeometry>
        </mxCell>
        <mxCell id="WVXgPva8khILI4rrqAxh-116" value="&lt;span style=&quot;white-space: pre;&quot;&gt;currency&lt;/span&gt;&amp;nbsp;&lt;span style=&quot;white-space: pre;&quot;&gt;&#x9;&lt;/span&gt;&lt;span style=&quot;white-space: pre;&quot;&gt;&#x9;&lt;/span&gt;&lt;span style=&quot;white-space: pre;&quot;&gt;&#x9;char(3)&lt;/span&gt;" style="shape=partialRectangle;connectable=0;fillColor=none;top=0;left=0;bottom=0;right=0;align=left;spacingLeft=6;overflow=hidden;whiteSpace=wrap;html=1;" vertex="1" parent="WVXgPva8khILI4rrqAxh-114">
          <mxGeometry x="30" width="182.75" height="30" as="geometry">
            <mxRectangle width="182.75" height="30" as="alternateBounds" />
          </mxGeometry>
        </mxCell>
        <mxCell id="WVXgPva8khILI4rrqAxh-117" value="" style="shape=tableRow;horizontal=0;startSize=0;swimlaneHead=0;swimlaneBody=0;fillColor=none;collapsible=0;dropTarget=0;points=[[0,0.5],[1,0.5]];portConstraint=eastwest;top=0;left=0;right=0;bottom=0;" vertex="1" parent="WVXgPva8khILI4rrqAxh-101">
          <mxGeometry y="180" width="212.75" height="30" as="geometry" />
        </mxCell>
        <mxCell id="WVXgPva8khILI4rrqAxh-118" value="" style="shape=partialRectangle;connectable=0;fillColor=none;top=0;left=0;bottom=0;right=0;editable=1;overflow=hidden;whiteSpace=wrap;html=1;" vertex="1" parent="WVXgPva8khILI4rrqAxh-117">
          <mxGeometry width="30" height="30" as="geometry">
            <mxRectangle width="30" height="30" as="alternateBounds" />
          </mxGeometry>
        </mxCell>
        <mxCell id="WVXgPva8khILI4rrqAxh-119" value="is_active&lt;span style=&quot;white-space: pre;&quot;&gt;&#x9;&lt;/span&gt;&lt;span style=&quot;white-space: pre;&quot;&gt;&#x9;&lt;/span&gt;&lt;span style=&quot;white-space: pre;&quot;&gt;&#x9;char(1)&lt;/span&gt;" style="shape=partialRectangle;connectable=0;fillColor=none;top=0;left=0;bottom=0;right=0;align=left;spacingLeft=6;overflow=hidden;whiteSpace=wrap;html=1;" vertex="1" parent="WVXgPva8khILI4rrqAxh-117">
          <mxGeometry x="30" width="182.75" height="30" as="geometry">
            <mxRectangle width="182.75" height="30" as="alternateBounds" />
          </mxGeometry>
        </mxCell>
        <mxCell id="WVXgPva8khILI4rrqAxh-120" value="" style="shape=tableRow;horizontal=0;startSize=0;swimlaneHead=0;swimlaneBody=0;fillColor=none;collapsible=0;dropTarget=0;points=[[0,0.5],[1,0.5]];portConstraint=eastwest;top=0;left=0;right=0;bottom=0;" vertex="1" parent="WVXgPva8khILI4rrqAxh-101">
          <mxGeometry y="210" width="212.75" height="30" as="geometry" />
        </mxCell>
        <mxCell id="WVXgPva8khILI4rrqAxh-121" value="" style="shape=partialRectangle;connectable=0;fillColor=none;top=0;left=0;bottom=0;right=0;editable=1;overflow=hidden;whiteSpace=wrap;html=1;" vertex="1" parent="WVXgPva8khILI4rrqAxh-120">
          <mxGeometry width="30" height="30" as="geometry">
            <mxRectangle width="30" height="30" as="alternateBounds" />
          </mxGeometry>
        </mxCell>
        <mxCell id="WVXgPva8khILI4rrqAxh-122" value="is_pnd&lt;span style=&quot;white-space: pre;&quot;&gt;&#x9;&lt;/span&gt;&lt;span style=&quot;white-space: pre;&quot;&gt;&#x9;&lt;/span&gt;&lt;span style=&quot;white-space: pre;&quot;&gt;&#x9;&lt;/span&gt;&lt;span style=&quot;white-space: pre;&quot;&gt;char(1)&lt;/span&gt;" style="shape=partialRectangle;connectable=0;fillColor=none;top=0;left=0;bottom=0;right=0;align=left;spacingLeft=6;overflow=hidden;whiteSpace=wrap;html=1;" vertex="1" parent="WVXgPva8khILI4rrqAxh-120">
          <mxGeometry x="30" width="182.75" height="30" as="geometry">
            <mxRectangle width="182.75" height="30" as="alternateBounds" />
          </mxGeometry>
        </mxCell>
        <mxCell id="WVXgPva8khILI4rrqAxh-123" value="" style="shape=tableRow;horizontal=0;startSize=0;swimlaneHead=0;swimlaneBody=0;fillColor=none;collapsible=0;dropTarget=0;points=[[0,0.5],[1,0.5]];portConstraint=eastwest;top=0;left=0;right=0;bottom=0;" vertex="1" parent="WVXgPva8khILI4rrqAxh-101">
          <mxGeometry y="240" width="212.75" height="30" as="geometry" />
        </mxCell>
        <mxCell id="WVXgPva8khILI4rrqAxh-124" value="" style="shape=partialRectangle;connectable=0;fillColor=none;top=0;left=0;bottom=0;right=0;editable=1;overflow=hidden;whiteSpace=wrap;html=1;" vertex="1" parent="WVXgPva8khILI4rrqAxh-123">
          <mxGeometry width="30" height="30" as="geometry">
            <mxRectangle width="30" height="30" as="alternateBounds" />
          </mxGeometry>
        </mxCell>
        <mxCell id="WVXgPva8khILI4rrqAxh-125" value="chequebook&lt;span style=&quot;white-space: pre;&quot;&gt;&#x9; &lt;span style=&quot;white-space: pre;&quot;&gt;&#x9;&lt;/span&gt;&lt;/span&gt;&lt;span style=&quot;white-space: pre;&quot;&gt;char(1)&lt;/span&gt;" style="shape=partialRectangle;connectable=0;fillColor=none;top=0;left=0;bottom=0;right=0;align=left;spacingLeft=6;overflow=hidden;whiteSpace=wrap;html=1;" vertex="1" parent="WVXgPva8khILI4rrqAxh-123">
          <mxGeometry x="30" width="182.75" height="30" as="geometry">
            <mxRectangle width="182.75" height="30" as="alternateBounds" />
          </mxGeometry>
        </mxCell>
        <mxCell id="WVXgPva8khILI4rrqAxh-154" value="" style="shape=tableRow;horizontal=0;startSize=0;swimlaneHead=0;swimlaneBody=0;fillColor=none;collapsible=0;dropTarget=0;points=[[0,0.5],[1,0.5]];portConstraint=eastwest;top=0;left=0;right=0;bottom=0;" vertex="1" parent="WVXgPva8khILI4rrqAxh-101">
          <mxGeometry y="270" width="212.75" height="30" as="geometry" />
        </mxCell>
        <mxCell id="WVXgPva8khILI4rrqAxh-155" value="" style="shape=partialRectangle;connectable=0;fillColor=none;top=0;left=0;bottom=0;right=0;editable=1;overflow=hidden;whiteSpace=wrap;html=1;" vertex="1" parent="WVXgPva8khILI4rrqAxh-154">
          <mxGeometry width="30" height="30" as="geometry">
            <mxRectangle width="30" height="30" as="alternateBounds" />
          </mxGeometry>
        </mxCell>
        <mxCell id="WVXgPva8khILI4rrqAxh-156" value="has_overdraft&lt;span style=&quot;white-space: pre;&quot;&gt;&#x9; &lt;span style=&quot;white-space: pre;&quot;&gt;&#x9;&lt;/span&gt;&lt;/span&gt;&lt;span style=&quot;white-space: pre;&quot;&gt;char(1)&lt;/span&gt;" style="shape=partialRectangle;connectable=0;fillColor=none;top=0;left=0;bottom=0;right=0;align=left;spacingLeft=6;overflow=hidden;whiteSpace=wrap;html=1;" vertex="1" parent="WVXgPva8khILI4rrqAxh-154">
          <mxGeometry x="30" width="182.75" height="30" as="geometry">
            <mxRectangle width="182.75" height="30" as="alternateBounds" />
          </mxGeometry>
        </mxCell>
        <mxCell id="WVXgPva8khILI4rrqAxh-157" value="" style="shape=tableRow;horizontal=0;startSize=0;swimlaneHead=0;swimlaneBody=0;fillColor=none;collapsible=0;dropTarget=0;points=[[0,0.5],[1,0.5]];portConstraint=eastwest;top=0;left=0;right=0;bottom=0;" vertex="1" parent="WVXgPva8khILI4rrqAxh-101">
          <mxGeometry y="300" width="212.75" height="30" as="geometry" />
        </mxCell>
        <mxCell id="WVXgPva8khILI4rrqAxh-158" value="" style="shape=partialRectangle;connectable=0;fillColor=none;top=0;left=0;bottom=0;right=0;editable=1;overflow=hidden;whiteSpace=wrap;html=1;" vertex="1" parent="WVXgPva8khILI4rrqAxh-157">
          <mxGeometry width="30" height="30" as="geometry">
            <mxRectangle width="30" height="30" as="alternateBounds" />
          </mxGeometry>
        </mxCell>
        <mxCell id="WVXgPva8khILI4rrqAxh-159" value="is_joint_account&lt;span style=&quot;white-space: pre;&quot;&gt; &lt;span style=&quot;white-space: pre;&quot;&gt;&#x9;&lt;/span&gt;&lt;/span&gt;&lt;span style=&quot;white-space: pre;&quot;&gt;char(1)&lt;/span&gt;" style="shape=partialRectangle;connectable=0;fillColor=none;top=0;left=0;bottom=0;right=0;align=left;spacingLeft=6;overflow=hidden;whiteSpace=wrap;html=1;" vertex="1" parent="WVXgPva8khILI4rrqAxh-157">
          <mxGeometry x="30" width="182.75" height="30" as="geometry">
            <mxRectangle width="182.75" height="30" as="alternateBounds" />
          </mxGeometry>
        </mxCell>
        <mxCell id="WVXgPva8khILI4rrqAxh-126" value="dim_employee" style="shape=table;startSize=30;container=1;collapsible=1;childLayout=tableLayout;fixedRows=1;rowLines=0;fontStyle=1;align=center;resizeLast=1;html=1;" vertex="1" parent="1">
          <mxGeometry x="594" y="455" width="212.75" height="267" as="geometry" />
        </mxCell>
        <mxCell id="WVXgPva8khILI4rrqAxh-127" value="" style="shape=tableRow;horizontal=0;startSize=0;swimlaneHead=0;swimlaneBody=0;fillColor=none;collapsible=0;dropTarget=0;points=[[0,0.5],[1,0.5]];portConstraint=eastwest;top=0;left=0;right=0;bottom=1;" vertex="1" parent="WVXgPva8khILI4rrqAxh-126">
          <mxGeometry y="30" width="212.75" height="30" as="geometry" />
        </mxCell>
        <mxCell id="WVXgPva8khILI4rrqAxh-128" value="PK" style="shape=partialRectangle;connectable=0;fillColor=none;top=0;left=0;bottom=0;right=0;fontStyle=1;overflow=hidden;whiteSpace=wrap;html=1;" vertex="1" parent="WVXgPva8khILI4rrqAxh-127">
          <mxGeometry width="30" height="30" as="geometry">
            <mxRectangle width="30" height="30" as="alternateBounds" />
          </mxGeometry>
        </mxCell>
        <mxCell id="WVXgPva8khILI4rrqAxh-129" value="employee_id&lt;span style=&quot;white-space: pre;&quot;&gt;&#x9;&lt;span style=&quot;white-space: pre;&quot;&gt;&#x9;&lt;/span&gt;&lt;/span&gt;&lt;span style=&quot;white-space: pre;&quot;&gt;varchar(10)&lt;/span&gt;" style="shape=partialRectangle;connectable=0;fillColor=none;top=0;left=0;bottom=0;right=0;align=left;spacingLeft=6;fontStyle=5;overflow=hidden;whiteSpace=wrap;html=1;" vertex="1" parent="WVXgPva8khILI4rrqAxh-127">
          <mxGeometry x="30" width="182.75" height="30" as="geometry">
            <mxRectangle width="182.75" height="30" as="alternateBounds" />
          </mxGeometry>
        </mxCell>
        <mxCell id="WVXgPva8khILI4rrqAxh-130" value="" style="shape=tableRow;horizontal=0;startSize=0;swimlaneHead=0;swimlaneBody=0;fillColor=none;collapsible=0;dropTarget=0;points=[[0,0.5],[1,0.5]];portConstraint=eastwest;top=0;left=0;right=0;bottom=0;" vertex="1" parent="WVXgPva8khILI4rrqAxh-126">
          <mxGeometry y="60" width="212.75" height="30" as="geometry" />
        </mxCell>
        <mxCell id="WVXgPva8khILI4rrqAxh-131" value="" style="shape=partialRectangle;connectable=0;fillColor=none;top=0;left=0;bottom=0;right=0;editable=1;overflow=hidden;whiteSpace=wrap;html=1;" vertex="1" parent="WVXgPva8khILI4rrqAxh-130">
          <mxGeometry width="30" height="30" as="geometry">
            <mxRectangle width="30" height="30" as="alternateBounds" />
          </mxGeometry>
        </mxCell>
        <mxCell id="WVXgPva8khILI4rrqAxh-132" value="name&lt;span style=&quot;white-space: pre;&quot;&gt;&#x9;&lt;/span&gt;&lt;span style=&quot;white-space: pre;&quot;&gt;&#x9;&lt;/span&gt;&lt;span style=&quot;white-space: pre;&quot;&gt;&#x9;&lt;/span&gt;&lt;span style=&quot;white-space: pre;&quot;&gt;varchar(100)&lt;/span&gt;" style="shape=partialRectangle;connectable=0;fillColor=none;top=0;left=0;bottom=0;right=0;align=left;spacingLeft=6;overflow=hidden;whiteSpace=wrap;html=1;" vertex="1" parent="WVXgPva8khILI4rrqAxh-130">
          <mxGeometry x="30" width="182.75" height="30" as="geometry">
            <mxRectangle width="182.75" height="30" as="alternateBounds" />
          </mxGeometry>
        </mxCell>
        <mxCell id="WVXgPva8khILI4rrqAxh-133" value="" style="shape=tableRow;horizontal=0;startSize=0;swimlaneHead=0;swimlaneBody=0;fillColor=none;collapsible=0;dropTarget=0;points=[[0,0.5],[1,0.5]];portConstraint=eastwest;top=0;left=0;right=0;bottom=0;" vertex="1" parent="WVXgPva8khILI4rrqAxh-126">
          <mxGeometry y="90" width="212.75" height="27" as="geometry" />
        </mxCell>
        <mxCell id="WVXgPva8khILI4rrqAxh-134" value="FK" style="shape=partialRectangle;connectable=0;fillColor=none;top=0;left=0;bottom=0;right=0;editable=1;overflow=hidden;whiteSpace=wrap;html=1;" vertex="1" parent="WVXgPva8khILI4rrqAxh-133">
          <mxGeometry width="30" height="27" as="geometry">
            <mxRectangle width="30" height="27" as="alternateBounds" />
          </mxGeometry>
        </mxCell>
        <mxCell id="WVXgPva8khILI4rrqAxh-135" value="branch_id&lt;span style=&quot;white-space: pre;&quot;&gt;&#x9;&lt;span style=&quot;white-space: pre;&quot;&gt;&#x9;&lt;/span&gt;&lt;/span&gt;&lt;span style=&quot;white-space: pre;&quot;&gt;char(4)&lt;/span&gt;" style="shape=partialRectangle;connectable=0;fillColor=none;top=0;left=0;bottom=0;right=0;align=left;spacingLeft=6;overflow=hidden;whiteSpace=wrap;html=1;" vertex="1" parent="WVXgPva8khILI4rrqAxh-133">
          <mxGeometry x="30" width="182.75" height="27" as="geometry">
            <mxRectangle width="182.75" height="27" as="alternateBounds" />
          </mxGeometry>
        </mxCell>
        <mxCell id="WVXgPva8khILI4rrqAxh-136" value="" style="shape=tableRow;horizontal=0;startSize=0;swimlaneHead=0;swimlaneBody=0;fillColor=none;collapsible=0;dropTarget=0;points=[[0,0.5],[1,0.5]];portConstraint=eastwest;top=0;left=0;right=0;bottom=0;" vertex="1" parent="WVXgPva8khILI4rrqAxh-126">
          <mxGeometry y="117" width="212.75" height="30" as="geometry" />
        </mxCell>
        <mxCell id="WVXgPva8khILI4rrqAxh-137" value="" style="shape=partialRectangle;connectable=0;fillColor=none;top=0;left=0;bottom=0;right=0;editable=1;overflow=hidden;whiteSpace=wrap;html=1;" vertex="1" parent="WVXgPva8khILI4rrqAxh-136">
          <mxGeometry width="30" height="30" as="geometry">
            <mxRectangle width="30" height="30" as="alternateBounds" />
          </mxGeometry>
        </mxCell>
        <mxCell id="WVXgPva8khILI4rrqAxh-138" value="address&lt;span style=&quot;white-space: pre;&quot;&gt;&#x9;&lt;/span&gt;&lt;span style=&quot;white-space: pre;&quot;&gt;&#x9;&lt;/span&gt;&lt;span style=&quot;white-space: pre;&quot;&gt;&#x9;text&lt;/span&gt;" style="shape=partialRectangle;connectable=0;fillColor=none;top=0;left=0;bottom=0;right=0;align=left;spacingLeft=6;overflow=hidden;whiteSpace=wrap;html=1;" vertex="1" parent="WVXgPva8khILI4rrqAxh-136">
          <mxGeometry x="30" width="182.75" height="30" as="geometry">
            <mxRectangle width="182.75" height="30" as="alternateBounds" />
          </mxGeometry>
        </mxCell>
        <mxCell id="WVXgPva8khILI4rrqAxh-139" value="" style="shape=tableRow;horizontal=0;startSize=0;swimlaneHead=0;swimlaneBody=0;fillColor=none;collapsible=0;dropTarget=0;points=[[0,0.5],[1,0.5]];portConstraint=eastwest;top=0;left=0;right=0;bottom=0;" vertex="1" parent="WVXgPva8khILI4rrqAxh-126">
          <mxGeometry y="147" width="212.75" height="30" as="geometry" />
        </mxCell>
        <mxCell id="WVXgPva8khILI4rrqAxh-140" value="FK" style="shape=partialRectangle;connectable=0;fillColor=none;top=0;left=0;bottom=0;right=0;editable=1;overflow=hidden;whiteSpace=wrap;html=1;" vertex="1" parent="WVXgPva8khILI4rrqAxh-139">
          <mxGeometry width="30" height="30" as="geometry">
            <mxRectangle width="30" height="30" as="alternateBounds" />
          </mxGeometry>
        </mxCell>
        <mxCell id="WVXgPva8khILI4rrqAxh-141" value="&lt;span style=&quot;white-space: pre;&quot;&gt;grade_level_id&lt;span style=&quot;white-space: pre;&quot;&gt;&#x9;&lt;/span&gt;&lt;/span&gt;&lt;span style=&quot;white-space: pre;&quot;&gt;&#x9;varchar(10)&lt;/span&gt;" style="shape=partialRectangle;connectable=0;fillColor=none;top=0;left=0;bottom=0;right=0;align=left;spacingLeft=6;overflow=hidden;whiteSpace=wrap;html=1;" vertex="1" parent="WVXgPva8khILI4rrqAxh-139">
          <mxGeometry x="30" width="182.75" height="30" as="geometry">
            <mxRectangle width="182.75" height="30" as="alternateBounds" />
          </mxGeometry>
        </mxCell>
        <mxCell id="WVXgPva8khILI4rrqAxh-142" value="" style="shape=tableRow;horizontal=0;startSize=0;swimlaneHead=0;swimlaneBody=0;fillColor=none;collapsible=0;dropTarget=0;points=[[0,0.5],[1,0.5]];portConstraint=eastwest;top=0;left=0;right=0;bottom=0;" vertex="1" parent="WVXgPva8khILI4rrqAxh-126">
          <mxGeometry y="177" width="212.75" height="30" as="geometry" />
        </mxCell>
        <mxCell id="WVXgPva8khILI4rrqAxh-143" value="" style="shape=partialRectangle;connectable=0;fillColor=none;top=0;left=0;bottom=0;right=0;editable=1;overflow=hidden;whiteSpace=wrap;html=1;" vertex="1" parent="WVXgPva8khILI4rrqAxh-142">
          <mxGeometry width="30" height="30" as="geometry">
            <mxRectangle width="30" height="30" as="alternateBounds" />
          </mxGeometry>
        </mxCell>
        <mxCell id="WVXgPva8khILI4rrqAxh-144" value="email&lt;span style=&quot;white-space: pre;&quot;&gt;&#x9;&lt;/span&gt;&lt;span style=&quot;white-space: pre;&quot;&gt;&#x9;&lt;/span&gt;&lt;span style=&quot;white-space: pre;&quot;&gt;&#x9;varchar(50)&lt;/span&gt;" style="shape=partialRectangle;connectable=0;fillColor=none;top=0;left=0;bottom=0;right=0;align=left;spacingLeft=6;overflow=hidden;whiteSpace=wrap;html=1;" vertex="1" parent="WVXgPva8khILI4rrqAxh-142">
          <mxGeometry x="30" width="182.75" height="30" as="geometry">
            <mxRectangle width="182.75" height="30" as="alternateBounds" />
          </mxGeometry>
        </mxCell>
        <mxCell id="WVXgPva8khILI4rrqAxh-145" value="" style="shape=tableRow;horizontal=0;startSize=0;swimlaneHead=0;swimlaneBody=0;fillColor=none;collapsible=0;dropTarget=0;points=[[0,0.5],[1,0.5]];portConstraint=eastwest;top=0;left=0;right=0;bottom=0;" vertex="1" parent="WVXgPva8khILI4rrqAxh-126">
          <mxGeometry y="207" width="212.75" height="30" as="geometry" />
        </mxCell>
        <mxCell id="WVXgPva8khILI4rrqAxh-146" value="" style="shape=partialRectangle;connectable=0;fillColor=none;top=0;left=0;bottom=0;right=0;editable=1;overflow=hidden;whiteSpace=wrap;html=1;" vertex="1" parent="WVXgPva8khILI4rrqAxh-145">
          <mxGeometry width="30" height="30" as="geometry">
            <mxRectangle width="30" height="30" as="alternateBounds" />
          </mxGeometry>
        </mxCell>
        <mxCell id="WVXgPva8khILI4rrqAxh-147" value="emp_date&lt;span style=&quot;white-space: pre;&quot;&gt;&#x9;&lt;/span&gt;&lt;span style=&quot;white-space: pre;&quot;&gt;&#x9;&lt;/span&gt;&lt;span style=&quot;white-space: pre;&quot;&gt;&amp;nbsp;date&lt;/span&gt;" style="shape=partialRectangle;connectable=0;fillColor=none;top=0;left=0;bottom=0;right=0;align=left;spacingLeft=6;overflow=hidden;whiteSpace=wrap;html=1;" vertex="1" parent="WVXgPva8khILI4rrqAxh-145">
          <mxGeometry x="30" width="182.75" height="30" as="geometry">
            <mxRectangle width="182.75" height="30" as="alternateBounds" />
          </mxGeometry>
        </mxCell>
        <mxCell id="WVXgPva8khILI4rrqAxh-148" value="" style="shape=tableRow;horizontal=0;startSize=0;swimlaneHead=0;swimlaneBody=0;fillColor=none;collapsible=0;dropTarget=0;points=[[0,0.5],[1,0.5]];portConstraint=eastwest;top=0;left=0;right=0;bottom=0;" vertex="1" parent="WVXgPva8khILI4rrqAxh-126">
          <mxGeometry y="237" width="212.75" height="30" as="geometry" />
        </mxCell>
        <mxCell id="WVXgPva8khILI4rrqAxh-149" value="" style="shape=partialRectangle;connectable=0;fillColor=none;top=0;left=0;bottom=0;right=0;editable=1;overflow=hidden;whiteSpace=wrap;html=1;" vertex="1" parent="WVXgPva8khILI4rrqAxh-148">
          <mxGeometry width="30" height="30" as="geometry">
            <mxRectangle width="30" height="30" as="alternateBounds" />
          </mxGeometry>
        </mxCell>
        <mxCell id="WVXgPva8khILI4rrqAxh-150" value="is_active&lt;span style=&quot;white-space: pre;&quot;&gt;&#x9;&lt;/span&gt;&lt;span style=&quot;white-space: pre;&quot;&gt;&#x9;&lt;/span&gt;&lt;span style=&quot;white-space: pre;&quot;&gt;&#x9;&lt;/span&gt;&lt;span style=&quot;white-space: pre;&quot;&gt;char(1)&lt;/span&gt;" style="shape=partialRectangle;connectable=0;fillColor=none;top=0;left=0;bottom=0;right=0;align=left;spacingLeft=6;overflow=hidden;whiteSpace=wrap;html=1;" vertex="1" parent="WVXgPva8khILI4rrqAxh-148">
          <mxGeometry x="30" width="182.75" height="30" as="geometry">
            <mxRectangle width="182.75" height="30" as="alternateBounds" />
          </mxGeometry>
        </mxCell>
        <mxCell id="WVXgPva8khILI4rrqAxh-182" value="dim_grade_level" style="shape=table;startSize=30;container=1;collapsible=1;childLayout=tableLayout;fixedRows=1;rowLines=0;fontStyle=1;align=center;resizeLast=1;html=1;" vertex="1" parent="1">
          <mxGeometry x="589" y="788" width="212.75" height="90" as="geometry" />
        </mxCell>
        <mxCell id="WVXgPva8khILI4rrqAxh-183" value="" style="shape=tableRow;horizontal=0;startSize=0;swimlaneHead=0;swimlaneBody=0;fillColor=none;collapsible=0;dropTarget=0;points=[[0,0.5],[1,0.5]];portConstraint=eastwest;top=0;left=0;right=0;bottom=1;" vertex="1" parent="WVXgPva8khILI4rrqAxh-182">
          <mxGeometry y="30" width="212.75" height="30" as="geometry" />
        </mxCell>
        <mxCell id="WVXgPva8khILI4rrqAxh-184" value="PK" style="shape=partialRectangle;connectable=0;fillColor=none;top=0;left=0;bottom=0;right=0;fontStyle=1;overflow=hidden;whiteSpace=wrap;html=1;" vertex="1" parent="WVXgPva8khILI4rrqAxh-183">
          <mxGeometry width="30" height="30" as="geometry">
            <mxRectangle width="30" height="30" as="alternateBounds" />
          </mxGeometry>
        </mxCell>
        <mxCell id="WVXgPva8khILI4rrqAxh-185" value="&lt;span style=&quot;font-weight: 400; text-decoration: none; white-space: pre;&quot;&gt;grade_level_id&#x9;&lt;/span&gt;&lt;span style=&quot;font-weight: 400; text-decoration: none; white-space: pre;&quot;&gt;&#x9;varchar(10)&lt;/span&gt;" style="shape=partialRectangle;connectable=0;fillColor=none;top=0;left=0;bottom=0;right=0;align=left;spacingLeft=6;fontStyle=5;overflow=hidden;whiteSpace=wrap;html=1;" vertex="1" parent="WVXgPva8khILI4rrqAxh-183">
          <mxGeometry x="30" width="182.75" height="30" as="geometry">
            <mxRectangle width="182.75" height="30" as="alternateBounds" />
          </mxGeometry>
        </mxCell>
        <mxCell id="WVXgPva8khILI4rrqAxh-186" value="" style="shape=tableRow;horizontal=0;startSize=0;swimlaneHead=0;swimlaneBody=0;fillColor=none;collapsible=0;dropTarget=0;points=[[0,0.5],[1,0.5]];portConstraint=eastwest;top=0;left=0;right=0;bottom=0;" vertex="1" parent="WVXgPva8khILI4rrqAxh-182">
          <mxGeometry y="60" width="212.75" height="30" as="geometry" />
        </mxCell>
        <mxCell id="WVXgPva8khILI4rrqAxh-187" value="" style="shape=partialRectangle;connectable=0;fillColor=none;top=0;left=0;bottom=0;right=0;editable=1;overflow=hidden;whiteSpace=wrap;html=1;" vertex="1" parent="WVXgPva8khILI4rrqAxh-186">
          <mxGeometry width="30" height="30" as="geometry">
            <mxRectangle width="30" height="30" as="alternateBounds" />
          </mxGeometry>
        </mxCell>
        <mxCell id="WVXgPva8khILI4rrqAxh-188" value="grade_level&lt;span style=&quot;white-space: pre;&quot;&gt;&#x9;&lt;/span&gt;&lt;span style=&quot;white-space: pre;&quot;&gt;&#x9;varchar(20)&lt;/span&gt;" style="shape=partialRectangle;connectable=0;fillColor=none;top=0;left=0;bottom=0;right=0;align=left;spacingLeft=6;overflow=hidden;whiteSpace=wrap;html=1;" vertex="1" parent="WVXgPva8khILI4rrqAxh-186">
          <mxGeometry x="30" width="182.75" height="30" as="geometry">
            <mxRectangle width="182.75" height="30" as="alternateBounds" />
          </mxGeometry>
        </mxCell>
        <mxCell id="WVXgPva8khILI4rrqAxh-196" style="edgeStyle=elbowEdgeStyle;rounded=0;orthogonalLoop=1;jettySize=auto;html=1;exitX=1;exitY=0.5;exitDx=0;exitDy=0;entryX=0;entryY=0.5;entryDx=0;entryDy=0;fontSize=12;startSize=8;endSize=8;" edge="1" parent="1">
          <mxGeometry relative="1" as="geometry">
            <mxPoint x="172.75" y="558" as="sourcePoint" />
            <mxPoint x="286" y="289" as="targetPoint" />
          </mxGeometry>
        </mxCell>
        <mxCell id="WVXgPva8khILI4rrqAxh-197" style="edgeStyle=orthogonalEdgeStyle;rounded=0;orthogonalLoop=1;jettySize=auto;html=1;exitX=0;exitY=0.5;exitDx=0;exitDy=0;entryX=0;entryY=0.5;entryDx=0;entryDy=0;fontSize=12;startSize=8;endSize=8;" edge="1" parent="1" source="WVXgPva8khILI4rrqAxh-5" target="WVXgPva8khILI4rrqAxh-105">
          <mxGeometry relative="1" as="geometry">
            <Array as="points">
              <mxPoint x="-83" y="156" />
              <mxPoint x="-83" y="591" />
            </Array>
          </mxGeometry>
        </mxCell>
        <mxCell id="WVXgPva8khILI4rrqAxh-198" style="edgeStyle=orthogonalEdgeStyle;rounded=0;orthogonalLoop=1;jettySize=auto;html=1;exitX=0;exitY=0.5;exitDx=0;exitDy=0;entryX=0;entryY=0.5;entryDx=0;entryDy=0;fontSize=12;startSize=8;endSize=8;" edge="1" parent="1" source="WVXgPva8khILI4rrqAxh-52" target="WVXgPva8khILI4rrqAxh-133">
          <mxGeometry relative="1" as="geometry" />
        </mxCell>
        <mxCell id="WVXgPva8khILI4rrqAxh-199" style="edgeStyle=orthogonalEdgeStyle;rounded=0;orthogonalLoop=1;jettySize=auto;html=1;exitX=1;exitY=0.5;exitDx=0;exitDy=0;entryX=1;entryY=0.5;entryDx=0;entryDy=0;fontSize=12;startSize=8;endSize=8;" edge="1" parent="1" source="WVXgPva8khILI4rrqAxh-183" target="WVXgPva8khILI4rrqAxh-139">
          <mxGeometry relative="1" as="geometry" />
        </mxCell>
        <mxCell id="WVXgPva8khILI4rrqAxh-200" style="edgeStyle=orthogonalEdgeStyle;rounded=0;orthogonalLoop=1;jettySize=auto;html=1;entryX=1;entryY=0.5;entryDx=0;entryDy=0;fontSize=12;startSize=8;endSize=8;exitX=0;exitY=0.5;exitDx=0;exitDy=0;" edge="1" parent="1" source="WVXgPva8khILI4rrqAxh-127" target="WVXgPva8khILI4rrqAxh-48">
          <mxGeometry relative="1" as="geometry">
            <mxPoint x="518" y="626" as="sourcePoint" />
          </mxGeometry>
        </mxCell>
        <mxCell id="WVXgPva8khILI4rrqAxh-201" style="edgeStyle=orthogonalEdgeStyle;rounded=0;orthogonalLoop=1;jettySize=auto;html=1;exitX=1;exitY=0.5;exitDx=0;exitDy=0;entryX=1;entryY=0.5;entryDx=0;entryDy=0;fontSize=12;startSize=8;endSize=8;" edge="1" parent="1" source="WVXgPva8khILI4rrqAxh-127" target="WVXgPva8khILI4rrqAxh-98">
          <mxGeometry relative="1" as="geometry">
            <Array as="points">
              <mxPoint x="855" y="500" />
              <mxPoint x="855" y="919" />
              <mxPoint x="546" y="919" />
              <mxPoint x="546" y="819" />
            </Array>
          </mxGeometry>
        </mxCell>
        <mxCell id="WVXgPva8khILI4rrqAxh-202" style="edgeStyle=orthogonalEdgeStyle;rounded=0;orthogonalLoop=1;jettySize=auto;html=1;exitX=1;exitY=0.5;exitDx=0;exitDy=0;entryX=1;entryY=0.5;entryDx=0;entryDy=0;fontSize=12;startSize=8;endSize=8;" edge="1" parent="1" source="WVXgPva8khILI4rrqAxh-52" target="WVXgPva8khILI4rrqAxh-108">
          <mxGeometry relative="1" as="geometry">
            <Array as="points">
              <mxPoint x="893" y="126" />
              <mxPoint x="893" y="968" />
              <mxPoint x="207" y="968" />
              <mxPoint x="207" y="621" />
            </Array>
          </mxGeometry>
        </mxCell>
      </root>
    </mxGraphModel>
  </diagram>
</mxfile>
